  0
SECTION
  2
BLOCKS
  0
ENDSEC
  0
SECTION
  2
ENTITIES
  0
LINE
  8
0
 10
-71.3405
 20
-58.9806
 11
-62.0793
 21
-70.7546
  0
LINE
  8
0
 10
-62.0793
 20
-70.7546
 11
-60.8102
 21
-72.3681
  0
LINE
  8
0
 10
-60.8102
 20
-72.3681
 11
-60.1063
 21
-74.1389
  0
LINE
  8
0
 10
-60.1063
 20
-74.1389
 11
-58.4414
 21
-76.524
  0
LINE
  8
0
 10
-58.4414
 20
-76.524
 11
-58.4195
 21
-76.5501
  0
LINE
  8
0
 10
-58.4195
 20
-76.5501
 11
-58.377
 21
-76.601
  0
LINE
  8
0
 10
-58.377
 20
-76.601
 11
-58.377
 21
-76.601
  0
LINE
  8
0
 10
-58.377
 20
-76.601
 11
-52.5325
 21
-83.591
  0
LINE
  8
0
 10
-52.5325
 20
-83.591
 11
-47.4273
 21
-89.6969
  0
LINE
  8
0
 10
-47.4273
 20
-89.6969
 11
-47.4273
 21
-89.6969
  0
LINE
  8
0
 10
-47.4273
 20
-89.6969
 11
-47.3629
 21
-89.7739
  0
LINE
  8
0
 10
-47.3629
 20
-89.7739
 11
-38.6577
 21
-92.5167
  0
LINE
  8
0
 10
-38.6577
 20
-92.5167
 11
-38.0415
 21
-92.6618
  0
LINE
  8
0
 10
-38.0415
 20
-92.6618
 11
-37.789
 21
-92.4851
  0
LINE
  8
0
 10
-37.789
 20
-92.4851
 11
-26.4287
 21
-84.5305
  0
LINE
  8
0
 10
-26.4287
 20
-84.5305
 11
-26.192
 21
-84.4958
  0
LINE
  8
0
 10
-26.192
 20
-84.4958
 11
-25.9506
 21
-84.4605
  0
LINE
  8
0
 10
-25.9506
 20
-84.4605
 11
-25.9085
 21
-84.4408
  0
LINE
  8
0
 10
-25.9085
 20
-84.4408
 11
-25.9085
 21
-84.4408
  0
LINE
  8
0
 10
-25.9085
 20
-84.4408
 11
-25.8672
 21
-84.4216
  0
LINE
  8
0
 10
-25.8672
 20
-84.4216
 11
-18.6525
 21
-81.0573
  0
LINE
  8
0
 10
-18.6525
 20
-81.0573
 11
-11.6014
 21
-77.7693
  0
LINE
  8
0
 10
-11.6014
 20
-77.7693
 11
-11.2594
 21
-77.3718
  0
LINE
  8
0
 10
-11.2594
 20
-77.3718
 11
-10.7753
 21
-76.8093
  0
LINE
  8
0
 10
-10.7753
 20
-76.8093
 11
-9.37879
 21
-70.493
  0
LINE
  8
0
 10
-9.37879
 20
-70.493
 11
-9.3787
 21
-70.4926
  0
LINE
  8
0
 10
-9.3787
 20
-70.4926
 11
-6.43201
 21
-57.1649
  0
LINE
  8
0
 10
-6.43201
 20
-57.1649
 11
0.110349
 21
-57.9114
  0
LINE
  8
0
 10
0.110349
 20
-57.9114
 11
14.7774
 21
-59.5849
  0
LINE
  8
0
 10
14.7774
 20
-59.5849
 11
22.4234
 21
-59.5849
  0
LINE
  8
0
 10
22.4234
 20
-59.5849
 11
22.4645
 21
-59.5849
  0
LINE
  8
0
 10
22.4645
 20
-59.5849
 11
35.6554
 21
-59.5849
  0
LINE
  8
0
 10
35.6554
 20
-59.5849
 11
37.1722
 21
-55.4487
  0
LINE
  8
0
 10
37.1722
 20
-55.4487
 11
38.6437
 21
-51.4362
  0
LINE
  8
0
 10
38.6437
 20
-51.4362
 11
43.7861
 21
-51.4362
  0
LINE
  8
0
 10
43.7861
 20
-51.4362
 11
51.6478
 21
-51.4362
  0
LINE
  8
0
 10
51.6478
 20
-51.4362
 11
56.6317
 21
-51.4362
  0
LINE
  8
0
 10
56.6317
 20
-51.4362
 11
83.8023
 21
-51.4362
  0
LINE
  8
0
 10
83.8023
 20
-51.4362
 11
88.6918
 21
-46.7133
  0
LINE
  8
0
 10
88.6918
 20
-46.7133
 11
91.8023
 21
-43.7088
  0
LINE
  8
0
 10
91.8023
 20
-43.7088
 11
91.8023
 21
40.6567
  0
LINE
  8
0
 10
91.8023
 20
40.6567
 11
86.7264
 21
45.0525
  0
LINE
  8
0
 10
86.7264
 20
45.0525
 11
83.8023
 21
47.5849
  0
LINE
  8
0
 10
83.8023
 20
47.5849
 11
55.329
 21
47.5849
  0
LINE
  8
0
 10
55.329
 20
47.5849
 11
52.7621
 21
47.5849
  0
LINE
  8
0
 10
52.7621
 20
47.5849
 11
41.1474
 21
47.5849
  0
LINE
  8
0
 10
41.1474
 20
47.5849
 11
35.7951
 21
47.5849
  0
LINE
  8
0
 10
35.7951
 20
47.5849
 11
34.3303
 21
51.8941
  0
LINE
  8
0
 10
34.3303
 20
51.8941
 11
31.7161
 21
59.5849
  0
LINE
  8
0
 10
31.7161
 20
59.5849
 11
20.8601
 21
59.5849
  0
LINE
  8
0
 10
20.8601
 20
59.5849
 11
20.821
 21
59.5849
  0
LINE
  8
0
 10
20.821
 20
59.5849
 11
14.8759
 21
59.5849
  0
LINE
  8
0
 10
14.8759
 20
59.5849
 11
12.3478
 21
61.489
  0
LINE
  8
0
 10
12.3478
 20
61.489
 11
11.1316
 21
62.4049
  0
LINE
  8
0
 10
11.1316
 20
62.4049
 11
0.660662
 21
62.4049
  0
LINE
  8
0
 10
0.660662
 20
62.4049
 11
-5.48229
 21
62.4049
  0
LINE
  8
0
 10
-5.48229
 20
62.4049
 11
-5.85249
 21
61.6333
  0
LINE
  8
0
 10
-5.85249
 20
61.6333
 11
-6.8353
 21
59.5849
  0
LINE
  8
0
 10
-6.8353
 20
59.5849
 11
-18.4775
 21
59.5849
  0
LINE
  8
0
 10
-18.4775
 20
59.5849
 11
-18.5073
 21
59.5849
  0
LINE
  8
0
 10
-18.5073
 20
59.5849
 11
-22.8818
 21
59.5849
  0
LINE
  8
0
 10
-22.8818
 20
59.5849
 11
-24.7439
 21
59.5849
  0
LINE
  8
0
 10
-24.7439
 20
59.5849
 11
-24.7666
 21
59.5849
  0
LINE
  8
0
 10
-24.7666
 20
59.5849
 11
-25.3216
 21
59.5849
  0
LINE
  8
0
 10
-25.3216
 20
59.5849
 11
-37.2404
 21
59.5849
  0
LINE
  8
0
 10
-37.2404
 20
59.5849
 11
-40.8225
 21
59.5849
  0
LINE
  8
0
 10
-40.8225
 20
59.5849
 11
-40.8404
 21
59.5849
  0
LINE
  8
0
 10
-40.8404
 20
59.5849
 11
-41.9858
 21
59.2635
  0
LINE
  8
0
 10
-41.9858
 20
59.2635
 11
-45.7509
 21
58.2067
  0
LINE
  8
0
 10
-45.7509
 20
58.2067
 11
-53.7509
 21
50.2067
  0
LINE
  8
0
 10
-53.7509
 20
50.2067
 11
-56.5377
 21
38.7854
  0
LINE
  8
0
 10
-56.5377
 20
38.7854
 11
-57.3854
 21
35.3111
  0
LINE
  8
0
 10
-57.3854
 20
35.3111
 11
-57.6398
 21
33.8581
  0
LINE
  8
0
 10
-57.6398
 20
33.8581
 11
-58.2338
 21
30.4647
  0
LINE
  8
0
 10
-58.2338
 20
30.4647
 11
-58.8746
 21
24.8061
  0
LINE
  8
0
 10
-58.8746
 20
24.8061
 11
-60.1152
 21
13.8508
  0
LINE
  8
0
 10
-60.1152
 20
13.8508
 11
-60.306
 21
10.4214
  0
LINE
  8
0
 10
-60.306
 20
10.4214
 11
-60.4045
 21
8.65
  0
LINE
  8
0
 10
-60.4045
 20
8.65
 11
-60.4045
 21
-8.65
  0
LINE
  8
0
 10
-60.4045
 20
-8.65
 11
-60.306
 21
-10.4214
  0
LINE
  8
0
 10
-60.306
 20
-10.4214
 11
-60.1152
 21
-13.8508
  0
LINE
  8
0
 10
-60.1152
 20
-13.8508
 11
-58.8746
 21
-24.8061
  0
LINE
  8
0
 10
-58.8746
 20
-24.8061
 11
-58.241
 21
-30.4008
  0
LINE
  8
0
 10
-58.241
 20
-30.4008
 11
-59.1222
 21
-34.8033
  0
LINE
  8
0
 10
-59.1222
 20
-34.8033
 11
-60.4086
 21
-41.2305
  0
LINE
  8
0
 10
-60.4086
 20
-41.2305
 11
-65.4966
 21
-44.7931
  0
LINE
  8
0
 10
-65.4966
 20
-44.7931
 11
-69.5943
 21
-47.6624
  0
LINE
  8
0
 10
-69.5943
 20
-47.6624
 11
-69.5943
 21
-47.6624
  0
LINE
  8
0
 10
-69.5943
 20
-47.6624
 11
-70.2219
 21
-48.3172
  0
LINE
  8
0
 10
-70.2219
 20
-48.3172
 11
-70.7095
 21
-48.8261
  0
LINE
  8
0
 10
-70.7095
 20
-48.8261
 11
-70.9855
 21
-53.2664
  0
LINE
  8
0
 10
-70.9855
 20
-53.2664
 11
-71.3405
 21
-58.9806
  0
LINE
  8
0
 10
-68.0102
 20
-56.3873
 11
-67.7481
 21
-52.1693
  0
LINE
  8
0
 10
-67.7481
 20
-52.1693
 11
-67.6407
 21
-50.4409
  0
LINE
  8
0
 10
-67.6407
 20
-50.4409
 11
-63.6502
 21
-47.6467
  0
LINE
  8
0
 10
-63.6502
 20
-47.6467
 11
-58.9775
 21
-44.3749
  0
LINE
  8
0
 10
-58.9775
 20
-44.3749
 11
-58.6329
 21
-44.9719
  0
LINE
  8
0
 10
-58.6329
 20
-44.9719
 11
-58.0943
 21
-45.57
  0
LINE
  8
0
 10
-58.0943
 20
-45.57
 11
-57.4432
 21
-46.0431
  0
LINE
  8
0
 10
-57.4432
 20
-46.0431
 11
-56.7079
 21
-46.3705
  0
LINE
  8
0
 10
-56.7079
 20
-46.3705
 11
-55.9206
 21
-46.5378
  0
LINE
  8
0
 10
-55.9206
 20
-46.5378
 11
-55.1157
 21
-46.5378
  0
LINE
  8
0
 10
-55.1157
 20
-46.5378
 11
-54.3285
 21
-46.3705
  0
LINE
  8
0
 10
-54.3285
 20
-46.3705
 11
-53.5932
 21
-46.0431
  0
LINE
  8
0
 10
-53.5932
 20
-46.0431
 11
-52.942
 21
-45.57
  0
LINE
  8
0
 10
-52.942
 20
-45.57
 11
-52.4035
 21
-44.9719
  0
LINE
  8
0
 10
-52.4035
 20
-44.9719
 11
-52.001
 21
-44.2748
  0
LINE
  8
0
 10
-52.001
 20
-44.2748
 11
-51.7523
 21
-43.5094
  0
LINE
  8
0
 10
-51.7523
 20
-43.5094
 11
-51.6682
 21
-42.7089
  0
LINE
  8
0
 10
-51.6682
 20
-42.7089
 11
-51.7523
 21
-41.9084
  0
LINE
  8
0
 10
-51.7523
 20
-41.9084
 11
-52.001
 21
-41.143
  0
LINE
  8
0
 10
-52.001
 20
-41.143
 11
-52.4035
 21
-40.4459
  0
LINE
  8
0
 10
-52.4035
 20
-40.4459
 11
-52.942
 21
-39.8478
  0
LINE
  8
0
 10
-52.942
 20
-39.8478
 11
-53.5932
 21
-39.3747
  0
LINE
  8
0
 10
-53.5932
 20
-39.3747
 11
-54.3285
 21
-39.0473
  0
LINE
  8
0
 10
-54.3285
 20
-39.0473
 11
-55.1157
 21
-38.88
  0
LINE
  8
0
 10
-55.1157
 20
-38.88
 11
-55.9206
 21
-38.88
  0
LINE
  8
0
 10
-55.9206
 20
-38.88
 11
-56.2996
 21
-38.9606
  0
LINE
  8
0
 10
-56.2996
 20
-38.9606
 11
-55.1338
 21
-30.4647
  0
LINE
  8
0
 10
-55.1338
 20
-30.4647
 11
-55.1338
 21
-30.3647
  0
LINE
  8
0
 10
-55.1338
 20
-30.3647
 11
-56.4973
 21
-18.3241
  0
LINE
  8
0
 10
-56.4973
 20
-18.3241
 11
-57.0152
 21
-13.7508
  0
LINE
  8
0
 10
-57.0152
 20
-13.7508
 11
-57.1064
 21
-12.1111
  0
LINE
  8
0
 10
-57.1064
 20
-12.1111
 11
-57.3045
 21
-8.54999
  0
LINE
  8
0
 10
-57.3045
 20
-8.54999
 11
-57.3045
 21
8.54999
  0
LINE
  8
0
 10
-57.3045
 20
8.54999
 11
-57.1064
 21
12.1111
  0
LINE
  8
0
 10
-57.1064
 20
12.1111
 11
-57.0152
 21
13.7508
  0
LINE
  8
0
 10
-57.0152
 20
13.7508
 11
-56.4973
 21
18.3241
  0
LINE
  8
0
 10
-56.4973
 20
18.3241
 11
-55.1338
 21
30.3647
  0
LINE
  8
0
 10
-55.1338
 20
30.3647
 11
-54.9113
 21
31.6358
  0
LINE
  8
0
 10
-54.9113
 20
31.6358
 11
-54.2854
 21
35.2111
  0
LINE
  8
0
 10
-54.2854
 20
35.2111
 11
-51.6041
 21
46.2001
  0
LINE
  8
0
 10
-51.6041
 20
46.2001
 11
-50.6509
 21
50.1067
  0
LINE
  8
0
 10
-50.6509
 20
50.1067
 11
-48.3378
 21
52.4198
  0
LINE
  8
0
 10
-48.3378
 20
52.4198
 11
-48.284
 21
51.9084
  0
LINE
  8
0
 10
-48.284
 20
51.9084
 11
-48.0353
 21
51.143
  0
LINE
  8
0
 10
-48.0353
 20
51.143
 11
-47.6329
 21
50.4459
  0
LINE
  8
0
 10
-47.6329
 20
50.4459
 11
-47.0943
 21
49.8478
  0
LINE
  8
0
 10
-47.0943
 20
49.8478
 11
-46.4432
 21
49.3747
  0
LINE
  8
0
 10
-46.4432
 20
49.3747
 11
-45.7079
 21
49.0473
  0
LINE
  8
0
 10
-45.7079
 20
49.0473
 11
-44.9206
 21
48.88
  0
LINE
  8
0
 10
-44.9206
 20
48.88
 11
-44.1157
 21
48.88
  0
LINE
  8
0
 10
-44.1157
 20
48.88
 11
-43.3285
 21
49.0473
  0
LINE
  8
0
 10
-43.3285
 20
49.0473
 11
-42.5932
 21
49.3747
  0
LINE
  8
0
 10
-42.5932
 20
49.3747
 11
-41.942
 21
49.8478
  0
LINE
  8
0
 10
-41.942
 20
49.8478
 11
-41.4035
 21
50.4459
  0
LINE
  8
0
 10
-41.4035
 20
50.4459
 11
-41.001
 21
51.143
  0
LINE
  8
0
 10
-41.001
 20
51.143
 11
-40.7523
 21
51.9084
  0
LINE
  8
0
 10
-40.7523
 20
51.9084
 11
-40.6682
 21
52.7089
  0
LINE
  8
0
 10
-40.6682
 20
52.7089
 11
-40.7523
 21
53.5094
  0
LINE
  8
0
 10
-40.7523
 20
53.5094
 11
-41.001
 21
54.2748
  0
LINE
  8
0
 10
-41.001
 20
54.2748
 11
-41.4035
 21
54.9719
  0
LINE
  8
0
 10
-41.4035
 20
54.9719
 11
-41.7193
 21
55.3227
  0
LINE
  8
0
 10
-41.7193
 20
55.3227
 11
-41.4725
 21
55.3362
  0
LINE
  8
0
 10
-41.4725
 20
55.3362
 11
-40.3069
 21
55.4002
  0
LINE
  8
0
 10
-40.3069
 20
55.4002
 11
-27.8393
 21
55.4002
  0
LINE
  8
0
 10
-27.8393
 20
55.4002
 11
-24.8295
 21
55.4002
  0
LINE
  8
0
 10
-24.8295
 20
55.4002
 11
-23.0044
 21
55.4002
  0
LINE
  8
0
 10
-23.0044
 20
55.4002
 11
-22.4707
 21
55.4002
  0
LINE
  8
0
 10
-22.4707
 20
55.4002
 11
-10.1142
 21
55.4002
  0
LINE
  8
0
 10
-10.1142
 20
55.4002
 11
-10.0954
 21
55.4002
  0
LINE
  8
0
 10
-10.0954
 20
55.4002
 11
-6.38286
 21
55.4002
  0
LINE
  8
0
 10
-6.38286
 20
55.4002
 11
-5.99176
 21
56.2698
  0
LINE
  8
0
 10
-5.99176
 20
56.2698
 11
-5.11443
 21
58.2202
  0
LINE
  8
0
 10
-5.11443
 20
58.2202
 11
6.28425
 21
58.2202
  0
LINE
  8
0
 10
6.28425
 20
58.2202
 11
11.3063
 21
58.2202
  0
LINE
  8
0
 10
11.3063
 20
58.2202
 11
13.6582
 21
56.4047
  0
LINE
  8
0
 10
13.6582
 20
56.4047
 11
14.9594
 21
55.4002
  0
LINE
  8
0
 10
14.9594
 20
55.4002
 11
26.5763
 21
55.4002
  0
LINE
  8
0
 10
26.5763
 20
55.4002
 11
31.7996
 21
55.4002
  0
LINE
  8
0
 10
31.7996
 20
55.4002
 11
32.9741
 21
51.8655
  0
LINE
  8
0
 10
32.9741
 20
51.8655
 11
35.7868
 21
43.4002
  0
LINE
  8
0
 10
35.7868
 20
43.4002
 11
47.8742
 21
43.4002
  0
LINE
  8
0
 10
47.8742
 20
43.4002
 11
52.8907
 21
43.4002
  0
LINE
  8
0
 10
52.8907
 20
43.4002
 11
58.46
 21
43.4002
  0
LINE
  8
0
 10
58.46
 20
43.4002
 11
60.9689
 21
43.4002
  0
LINE
  8
0
 10
60.9689
 20
43.4002
 11
81.9129
 21
43.4002
  0
LINE
  8
0
 10
81.9129
 20
43.4002
 11
81.5518
 21
42.7748
  0
LINE
  8
0
 10
81.5518
 20
42.7748
 11
81.3031
 21
42.0094
  0
LINE
  8
0
 10
81.3031
 20
42.0094
 11
81.2189
 21
41.2089
  0
LINE
  8
0
 10
81.2189
 20
41.2089
 11
81.3031
 21
40.4084
  0
LINE
  8
0
 10
81.3031
 20
40.4084
 11
81.5518
 21
39.643
  0
LINE
  8
0
 10
81.5518
 20
39.643
 11
81.9542
 21
38.9459
  0
LINE
  8
0
 10
81.9542
 20
38.9459
 11
82.4928
 21
38.3478
  0
LINE
  8
0
 10
82.4928
 20
38.3478
 11
83.1439
 21
37.8747
  0
LINE
  8
0
 10
83.1439
 20
37.8747
 11
83.8792
 21
37.5473
  0
LINE
  8
0
 10
83.8792
 20
37.5473
 11
84.6665
 21
37.38
  0
LINE
  8
0
 10
84.6665
 20
37.38
 11
85.4714
 21
37.38
  0
LINE
  8
0
 10
85.4714
 20
37.38
 11
86.2587
 21
37.5473
  0
LINE
  8
0
 10
86.2587
 20
37.5473
 11
86.9939
 21
37.8747
  0
LINE
  8
0
 10
86.9939
 20
37.8747
 11
87.6451
 21
38.3478
  0
LINE
  8
0
 10
87.6451
 20
38.3478
 11
88.1837
 21
38.9459
  0
LINE
  8
0
 10
88.1837
 20
38.9459
 11
88.4043
 21
39.3281
  0
LINE
  8
0
 10
88.4043
 20
39.3281
 11
88.7023
 21
39.0701
  0
LINE
  8
0
 10
88.7023
 20
39.0701
 11
88.7023
 21
29.2374
  0
LINE
  8
0
 10
88.7023
 20
29.2374
 11
88.7023
 21
24.3014
  0
LINE
  8
0
 10
88.7023
 20
24.3014
 11
88.7023
 21
21.4034
  0
LINE
  8
0
 10
88.7023
 20
21.4034
 11
88.7023
 21
18.8683
  0
LINE
  8
0
 10
88.7023
 20
18.8683
 11
88.7023
 21
10.9574
  0
LINE
  8
0
 10
88.7023
 20
10.9574
 11
88.7023
 21
2.38348
  0
LINE
  8
0
 10
88.7023
 20
2.38348
 11
88.7023
 21
0.483436
  0
LINE
  8
0
 10
88.7023
 20
0.483436
 11
88.7023
 21
-3.5
  0
LINE
  8
0
 10
88.7023
 20
-3.5
 11
88.7023
 21
-20.5
  0
LINE
  8
0
 10
88.7023
 20
-20.5
 11
88.7023
 21
-24.4834
  0
LINE
  8
0
 10
88.7023
 20
-24.4834
 11
88.7023
 21
-26.3835
  0
LINE
  8
0
 10
88.7023
 20
-26.3835
 11
88.7023
 21
-34.9574
  0
LINE
  8
0
 10
88.7023
 20
-34.9574
 11
88.7023
 21
-42.8358
  0
LINE
  8
0
 10
88.7023
 20
-42.8358
 11
88.5138
 21
-43.0178
  0
LINE
  8
0
 10
88.5138
 20
-43.0178
 11
88.1837
 21
-42.4459
  0
LINE
  8
0
 10
88.1837
 20
-42.4459
 11
87.6451
 21
-41.8478
  0
LINE
  8
0
 10
87.6451
 20
-41.8478
 11
86.9939
 21
-41.3747
  0
LINE
  8
0
 10
86.9939
 20
-41.3747
 11
86.2587
 21
-41.0473
  0
LINE
  8
0
 10
86.2587
 20
-41.0473
 11
85.4714
 21
-40.88
  0
LINE
  8
0
 10
85.4714
 20
-40.88
 11
84.6665
 21
-40.88
  0
LINE
  8
0
 10
84.6665
 20
-40.88
 11
83.8792
 21
-41.0473
  0
LINE
  8
0
 10
83.8792
 20
-41.0473
 11
83.1439
 21
-41.3747
  0
LINE
  8
0
 10
83.1439
 20
-41.3747
 11
82.4928
 21
-41.8478
  0
LINE
  8
0
 10
82.4928
 20
-41.8478
 11
81.9542
 21
-42.4459
  0
LINE
  8
0
 10
81.9542
 20
-42.4459
 11
81.5518
 21
-43.143
  0
LINE
  8
0
 10
81.5518
 20
-43.143
 11
81.3031
 21
-43.9084
  0
LINE
  8
0
 10
81.3031
 20
-43.9084
 11
81.2189
 21
-44.7089
  0
LINE
  8
0
 10
81.2189
 20
-44.7089
 11
81.3031
 21
-45.5094
  0
LINE
  8
0
 10
81.3031
 20
-45.5094
 11
81.5518
 21
-46.2748
  0
LINE
  8
0
 10
81.5518
 20
-46.2748
 11
81.9542
 21
-46.9719
  0
LINE
  8
0
 10
81.9542
 20
-46.9719
 11
82.4928
 21
-47.57
  0
LINE
  8
0
 10
82.4928
 20
-47.57
 11
82.6241
 21
-47.6654
  0
LINE
  8
0
 10
82.6241
 20
-47.6654
 11
60.9689
 21
-47.6654
  0
LINE
  8
0
 10
60.9689
 20
-47.6654
 11
56.5169
 21
-47.6654
  0
LINE
  8
0
 10
56.5169
 20
-47.6654
 11
51.8282
 21
-47.6654
  0
LINE
  8
0
 10
51.8282
 20
-47.6654
 11
44.1732
 21
-47.6654
  0
LINE
  8
0
 10
44.1732
 20
-47.6654
 11
44.1312
 21
-47.6654
  0
LINE
  8
0
 10
44.1312
 20
-47.6654
 11
34.7419
 21
-47.6654
  0
LINE
  8
0
 10
34.7419
 20
-47.6654
 11
34.6035
 21
-48.0909
  0
LINE
  8
0
 10
34.6035
 20
-48.0909
 11
34.4893
 21
-48.4418
  0
LINE
  8
0
 10
34.4893
 20
-48.4418
 11
34.5219
 21
-49.8354
  0
LINE
  8
0
 10
34.5219
 20
-49.8354
 11
34.5581
 21
-51.3878
  0
LINE
  8
0
 10
34.5581
 20
-51.3878
 11
34.5593
 21
-51.4362
  0
LINE
  8
0
 10
34.5593
 20
-51.4362
 11
34.5593
 21
-51.4362
  0
LINE
  8
0
 10
34.5593
 20
-51.4362
 11
34.609
 21
-51.4362
  0
LINE
  8
0
 10
34.609
 20
-51.4362
 11
35.7841
 21
-51.4362
  0
LINE
  8
0
 10
35.7841
 20
-51.4362
 11
35.6177
 21
-51.8695
  0
LINE
  8
0
 10
35.6177
 20
-51.8695
 11
34.2616
 21
-55.4002
  0
LINE
  8
0
 10
34.2616
 20
-55.4002
 11
28.2648
 21
-55.4002
  0
LINE
  8
0
 10
28.2648
 20
-55.4002
 11
15.0579
 21
-55.4002
  0
LINE
  8
0
 10
15.0579
 20
-55.4002
 11
-0.0262916
 21
-53.9713
  0
LINE
  8
0
 10
-0.0262916
 20
-53.9713
 11
-6.94202
 21
-53.3162
  0
LINE
  8
0
 10
-6.94202
 20
-53.3162
 11
-6.97063
 21
-53.3212
  0
LINE
  8
0
 10
-6.97063
 20
-53.3212
 11
-6.97063
 21
-53.3212
  0
LINE
  8
0
 10
-6.97063
 20
-53.3212
 11
-7.03714
 21
-53.3329
  0
LINE
  8
0
 10
-7.03714
 20
-53.3329
 11
-7.46781
 21
-53.9242
  0
LINE
  8
0
 10
-7.46781
 20
-53.9242
 11
-7.65306
 21
-54.1785
  0
LINE
  8
0
 10
-7.65306
 20
-54.1785
 11
-9.67244
 21
-61.8536
  0
LINE
  8
0
 10
-9.67244
 20
-61.8536
 11
-12.0735
 21
-70.9794
  0
LINE
  8
0
 10
-12.0735
 20
-70.9794
 11
-12.221
 21
-70.7239
  0
LINE
  8
0
 10
-12.221
 20
-70.7239
 11
-12.7596
 21
-70.1257
  0
LINE
  8
0
 10
-12.7596
 20
-70.1257
 11
-13.4107
 21
-69.6527
  0
LINE
  8
0
 10
-13.4107
 20
-69.6527
 11
-14.146
 21
-69.3253
  0
LINE
  8
0
 10
-14.146
 20
-69.3253
 11
-14.9333
 21
-69.1579
  0
LINE
  8
0
 10
-14.9333
 20
-69.1579
 11
-15.7382
 21
-69.1579
  0
LINE
  8
0
 10
-15.7382
 20
-69.1579
 11
-16.5254
 21
-69.3253
  0
LINE
  8
0
 10
-16.5254
 20
-69.3253
 11
-17.2607
 21
-69.6527
  0
LINE
  8
0
 10
-17.2607
 20
-69.6527
 11
-17.9119
 21
-70.1257
  0
LINE
  8
0
 10
-17.9119
 20
-70.1257
 11
-18.4504
 21
-70.7239
  0
LINE
  8
0
 10
-18.4504
 20
-70.7239
 11
-18.8529
 21
-71.4209
  0
LINE
  8
0
 10
-18.8529
 20
-71.4209
 11
-19.1016
 21
-72.1864
  0
LINE
  8
0
 10
-19.1016
 20
-72.1864
 11
-19.1857
 21
-72.9868
  0
LINE
  8
0
 10
-19.1857
 20
-72.9868
 11
-19.1016
 21
-73.7873
  0
LINE
  8
0
 10
-19.1016
 20
-73.7873
 11
-18.8529
 21
-74.5528
  0
LINE
  8
0
 10
-18.8529
 20
-74.5528
 11
-18.4504
 21
-75.2498
  0
LINE
  8
0
 10
-18.4504
 20
-75.2498
 11
-17.9119
 21
-75.848
  0
LINE
  8
0
 10
-17.9119
 20
-75.848
 11
-17.2607
 21
-76.321
  0
LINE
  8
0
 10
-17.2607
 20
-76.321
 11
-17.1028
 21
-76.3913
  0
LINE
  8
0
 10
-17.1028
 20
-76.3913
 11
-20.7832
 21
-78.1075
  0
LINE
  8
0
 10
-20.7832
 20
-78.1075
 11
-26.522
 21
-80.7836
  0
LINE
  8
0
 10
-26.522
 20
-80.7836
 11
-26.7753
 21
-80.8121
  0
LINE
  8
0
 10
-26.7753
 20
-80.8121
 11
-27.0908
 21
-80.8476
  0
LINE
  8
0
 10
-27.0908
 20
-80.8476
 11
-27.12
 21
-80.8681
  0
LINE
  8
0
 10
-27.12
 20
-80.8681
 11
-36.3664
 21
-87.3424
  0
LINE
  8
0
 10
-36.3664
 20
-87.3424
 11
-40.8451
 21
-88.1836
  0
LINE
  8
0
 10
-40.8451
 20
-88.1836
 11
-40.8451
 21
-88.1836
  0
LINE
  8
0
 10
-40.8451
 20
-88.1836
 11
-44.3122
 21
-87.2311
  0
LINE
  8
0
 10
-44.3122
 20
-87.2311
 11
-44.3122
 21
-87.2311
  0
LINE
  8
0
 10
-44.3122
 20
-87.2311
 11
-49.4956
 21
-80.9018
  0
LINE
  8
0
 10
-49.4956
 20
-80.9018
 11
-55.1254
 21
-74.0273
  0
LINE
  8
0
 10
-55.1254
 20
-74.0273
 11
-55.1254
 21
-74.0273
  0
LINE
  8
0
 10
-55.1254
 20
-74.0273
 11
-55.7472
 21
-72.8184
  0
LINE
  8
0
 10
-55.7472
 20
-72.8184
 11
-57.2172
 21
-70.4242
  0
LINE
  8
0
 10
-57.2172
 20
-70.4242
 11
-57.4799
 21
-69.7747
  0
LINE
  8
0
 10
-57.4799
 20
-69.7747
 11
-66.3118
 21
-58.5464
  0
LINE
  8
0
 10
-66.3118
 20
-58.5464
 11
-68.0102
 21
-56.3873
  0
LINE
  8
0
 10
-57.2182
 20
-42.7089
 11
-57.181
 21
-42.3555
  0
LINE
  8
0
 10
-57.181
 20
-42.3555
 11
-57.0712
 21
-42.0175
  0
LINE
  8
0
 10
-57.0712
 20
-42.0175
 11
-56.8935
 21
-41.7097
  0
LINE
  8
0
 10
-56.8935
 20
-41.7097
 11
-56.6557
 21
-41.4456
  0
LINE
  8
0
 10
-56.6557
 20
-41.4456
 11
-56.3682
 21
-41.2367
  0
LINE
  8
0
 10
-56.3682
 20
-41.2367
 11
-56.0435
 21
-41.0921
  0
LINE
  8
0
 10
-56.0435
 20
-41.0921
 11
-55.6959
 21
-41.0182
  0
LINE
  8
0
 10
-55.6959
 20
-41.0182
 11
-55.3405
 21
-41.0182
  0
LINE
  8
0
 10
-55.3405
 20
-41.0182
 11
-54.9929
 21
-41.0921
  0
LINE
  8
0
 10
-54.9929
 20
-41.0921
 11
-54.6682
 21
-41.2367
  0
LINE
  8
0
 10
-54.6682
 20
-41.2367
 11
-54.3807
 21
-41.4456
  0
LINE
  8
0
 10
-54.3807
 20
-41.4456
 11
-54.1429
 21
-41.7097
  0
LINE
  8
0
 10
-54.1429
 20
-41.7097
 11
-53.9652
 21
-42.0175
  0
LINE
  8
0
 10
-53.9652
 20
-42.0175
 11
-53.8553
 21
-42.3555
  0
LINE
  8
0
 10
-53.8553
 20
-42.3555
 11
-53.8182
 21
-42.7089
  0
LINE
  8
0
 10
-53.8182
 20
-42.7089
 11
-53.8553
 21
-43.0624
  0
LINE
  8
0
 10
-53.8553
 20
-43.0624
 11
-53.9652
 21
-43.4004
  0
LINE
  8
0
 10
-53.9652
 20
-43.4004
 11
-54.1429
 21
-43.7081
  0
LINE
  8
0
 10
-54.1429
 20
-43.7081
 11
-54.3807
 21
-43.9722
  0
LINE
  8
0
 10
-54.3807
 20
-43.9722
 11
-54.6682
 21
-44.1811
  0
LINE
  8
0
 10
-54.6682
 20
-44.1811
 11
-54.9929
 21
-44.3257
  0
LINE
  8
0
 10
-54.9929
 20
-44.3257
 11
-55.3405
 21
-44.3996
  0
LINE
  8
0
 10
-55.3405
 20
-44.3996
 11
-55.6959
 21
-44.3996
  0
LINE
  8
0
 10
-55.6959
 20
-44.3996
 11
-56.0435
 21
-44.3257
  0
LINE
  8
0
 10
-56.0435
 20
-44.3257
 11
-56.3682
 21
-44.1811
  0
LINE
  8
0
 10
-56.3682
 20
-44.1811
 11
-56.6557
 21
-43.9722
  0
LINE
  8
0
 10
-56.6557
 20
-43.9722
 11
-56.8935
 21
-43.7081
  0
LINE
  8
0
 10
-56.8935
 20
-43.7081
 11
-57.0712
 21
-43.4004
  0
LINE
  8
0
 10
-57.0712
 20
-43.4004
 11
-57.181
 21
-43.0624
  0
LINE
  8
0
 10
-57.181
 20
-43.0624
 11
-57.2182
 21
-42.7089
  0
LINE
  8
0
 10
-46.2182
 20
52.7089
 11
-46.181
 21
53.0624
  0
LINE
  8
0
 10
-46.181
 20
53.0624
 11
-46.0712
 21
53.4004
  0
LINE
  8
0
 10
-46.0712
 20
53.4004
 11
-45.8935
 21
53.7081
  0
LINE
  8
0
 10
-45.8935
 20
53.7081
 11
-45.6557
 21
53.9722
  0
LINE
  8
0
 10
-45.6557
 20
53.9722
 11
-45.3682
 21
54.1811
  0
LINE
  8
0
 10
-45.3682
 20
54.1811
 11
-45.0435
 21
54.3257
  0
LINE
  8
0
 10
-45.0435
 20
54.3257
 11
-44.6959
 21
54.3996
  0
LINE
  8
0
 10
-44.6959
 20
54.3996
 11
-44.3405
 21
54.3996
  0
LINE
  8
0
 10
-44.3405
 20
54.3996
 11
-43.9929
 21
54.3257
  0
LINE
  8
0
 10
-43.9929
 20
54.3257
 11
-43.6682
 21
54.1811
  0
LINE
  8
0
 10
-43.6682
 20
54.1811
 11
-43.3807
 21
53.9722
  0
LINE
  8
0
 10
-43.3807
 20
53.9722
 11
-43.1429
 21
53.7081
  0
LINE
  8
0
 10
-43.1429
 20
53.7081
 11
-42.9652
 21
53.4004
  0
LINE
  8
0
 10
-42.9652
 20
53.4004
 11
-42.8553
 21
53.0624
  0
LINE
  8
0
 10
-42.8553
 20
53.0624
 11
-42.8182
 21
52.7089
  0
LINE
  8
0
 10
-42.8182
 20
52.7089
 11
-42.8553
 21
52.3555
  0
LINE
  8
0
 10
-42.8553
 20
52.3555
 11
-42.9652
 21
52.0175
  0
LINE
  8
0
 10
-42.9652
 20
52.0175
 11
-43.1429
 21
51.7097
  0
LINE
  8
0
 10
-43.1429
 20
51.7097
 11
-43.3807
 21
51.4456
  0
LINE
  8
0
 10
-43.3807
 20
51.4456
 11
-43.6682
 21
51.2367
  0
LINE
  8
0
 10
-43.6682
 20
51.2367
 11
-43.9929
 21
51.0921
  0
LINE
  8
0
 10
-43.9929
 20
51.0921
 11
-44.3405
 21
51.0182
  0
LINE
  8
0
 10
-44.3405
 20
51.0182
 11
-44.6959
 21
51.0182
  0
LINE
  8
0
 10
-44.6959
 20
51.0182
 11
-45.0435
 21
51.0921
  0
LINE
  8
0
 10
-45.0435
 20
51.0921
 11
-45.3682
 21
51.2367
  0
LINE
  8
0
 10
-45.3682
 20
51.2367
 11
-45.6557
 21
51.4456
  0
LINE
  8
0
 10
-45.6557
 20
51.4456
 11
-45.8935
 21
51.7097
  0
LINE
  8
0
 10
-45.8935
 20
51.7097
 11
-46.0712
 21
52.0175
  0
LINE
  8
0
 10
-46.0712
 20
52.0175
 11
-46.181
 21
52.3555
  0
LINE
  8
0
 10
-46.181
 20
52.3555
 11
-46.2182
 21
52.7089
  0
LINE
  8
0
 10
-17.0357
 20
-72.9868
 11
-16.9986
 21
-72.6334
  0
LINE
  8
0
 10
-16.9986
 20
-72.6334
 11
-16.8887
 21
-72.2954
  0
LINE
  8
0
 10
-16.8887
 20
-72.2954
 11
-16.711
 21
-71.9876
  0
LINE
  8
0
 10
-16.711
 20
-71.9876
 11
-16.4732
 21
-71.7235
  0
LINE
  8
0
 10
-16.4732
 20
-71.7235
 11
-16.1857
 21
-71.5146
  0
LINE
  8
0
 10
-16.1857
 20
-71.5146
 11
-15.861
 21
-71.3701
  0
LINE
  8
0
 10
-15.861
 20
-71.3701
 11
-15.5134
 21
-71.2962
  0
LINE
  8
0
 10
-15.5134
 20
-71.2962
 11
-15.158
 21
-71.2962
  0
LINE
  8
0
 10
-15.158
 20
-71.2962
 11
-14.8104
 21
-71.3701
  0
LINE
  8
0
 10
-14.8104
 20
-71.3701
 11
-14.4857
 21
-71.5146
  0
LINE
  8
0
 10
-14.4857
 20
-71.5146
 11
-14.1982
 21
-71.7235
  0
LINE
  8
0
 10
-14.1982
 20
-71.7235
 11
-13.9604
 21
-71.9876
  0
LINE
  8
0
 10
-13.9604
 20
-71.9876
 11
-13.7827
 21
-72.2954
  0
LINE
  8
0
 10
-13.7827
 20
-72.2954
 11
-13.6729
 21
-72.6334
  0
LINE
  8
0
 10
-13.6729
 20
-72.6334
 11
-13.6357
 21
-72.9868
  0
LINE
  8
0
 10
-13.6357
 20
-72.9868
 11
-13.6729
 21
-73.3403
  0
LINE
  8
0
 10
-13.6729
 20
-73.3403
 11
-13.7827
 21
-73.6783
  0
LINE
  8
0
 10
-13.7827
 20
-73.6783
 11
-13.9604
 21
-73.9861
  0
LINE
  8
0
 10
-13.9604
 20
-73.9861
 11
-14.1982
 21
-74.2502
  0
LINE
  8
0
 10
-14.1982
 20
-74.2502
 11
-14.4857
 21
-74.4591
  0
LINE
  8
0
 10
-14.4857
 20
-74.4591
 11
-14.8104
 21
-74.6036
  0
LINE
  8
0
 10
-14.8104
 20
-74.6036
 11
-15.158
 21
-74.6775
  0
LINE
  8
0
 10
-15.158
 20
-74.6775
 11
-15.5134
 21
-74.6775
  0
LINE
  8
0
 10
-15.5134
 20
-74.6775
 11
-15.861
 21
-74.6036
  0
LINE
  8
0
 10
-15.861
 20
-74.6036
 11
-16.1857
 21
-74.4591
  0
LINE
  8
0
 10
-16.1857
 20
-74.4591
 11
-16.4732
 21
-74.2502
  0
LINE
  8
0
 10
-16.4732
 20
-74.2502
 11
-16.711
 21
-73.9861
  0
LINE
  8
0
 10
-16.711
 20
-73.9861
 11
-16.8887
 21
-73.6783
  0
LINE
  8
0
 10
-16.8887
 20
-73.6783
 11
-16.9986
 21
-73.3403
  0
LINE
  8
0
 10
-16.9986
 20
-73.3403
 11
-17.0357
 21
-72.9868
  0
LINE
  8
0
 10
83.3689
 20
-44.7089
 11
83.4061
 21
-44.3555
  0
LINE
  8
0
 10
83.4061
 20
-44.3555
 11
83.5159
 21
-44.0175
  0
LINE
  8
0
 10
83.5159
 20
-44.0175
 11
83.6936
 21
-43.7097
  0
LINE
  8
0
 10
83.6936
 20
-43.7097
 11
83.9314
 21
-43.4456
  0
LINE
  8
0
 10
83.9314
 20
-43.4456
 11
84.2189
 21
-43.2367
  0
LINE
  8
0
 10
84.2189
 20
-43.2367
 11
84.5436
 21
-43.0921
  0
LINE
  8
0
 10
84.5436
 20
-43.0921
 11
84.8912
 21
-43.0182
  0
LINE
  8
0
 10
84.8912
 20
-43.0182
 11
85.2466
 21
-43.0182
  0
LINE
  8
0
 10
85.2466
 20
-43.0182
 11
85.5943
 21
-43.0921
  0
LINE
  8
0
 10
85.5943
 20
-43.0921
 11
85.9189
 21
-43.2367
  0
LINE
  8
0
 10
85.9189
 20
-43.2367
 11
86.2065
 21
-43.4456
  0
LINE
  8
0
 10
86.2065
 20
-43.4456
 11
86.4443
 21
-43.7097
  0
LINE
  8
0
 10
86.4443
 20
-43.7097
 11
86.622
 21
-44.0175
  0
LINE
  8
0
 10
86.622
 20
-44.0175
 11
86.7318
 21
-44.3555
  0
LINE
  8
0
 10
86.7318
 20
-44.3555
 11
86.7689
 21
-44.7089
  0
LINE
  8
0
 10
86.7689
 20
-44.7089
 11
86.7318
 21
-45.0624
  0
LINE
  8
0
 10
86.7318
 20
-45.0624
 11
86.622
 21
-45.4004
  0
LINE
  8
0
 10
86.622
 20
-45.4004
 11
86.4443
 21
-45.7081
  0
LINE
  8
0
 10
86.4443
 20
-45.7081
 11
86.2065
 21
-45.9722
  0
LINE
  8
0
 10
86.2065
 20
-45.9722
 11
85.9189
 21
-46.1811
  0
LINE
  8
0
 10
85.9189
 20
-46.1811
 11
85.5943
 21
-46.3257
  0
LINE
  8
0
 10
85.5943
 20
-46.3257
 11
85.2466
 21
-46.3996
  0
LINE
  8
0
 10
85.2466
 20
-46.3996
 11
84.8912
 21
-46.3996
  0
LINE
  8
0
 10
84.8912
 20
-46.3996
 11
84.5436
 21
-46.3257
  0
LINE
  8
0
 10
84.5436
 20
-46.3257
 11
84.2189
 21
-46.1811
  0
LINE
  8
0
 10
84.2189
 20
-46.1811
 11
83.9314
 21
-45.9722
  0
LINE
  8
0
 10
83.9314
 20
-45.9722
 11
83.6936
 21
-45.7081
  0
LINE
  8
0
 10
83.6936
 20
-45.7081
 11
83.5159
 21
-45.4004
  0
LINE
  8
0
 10
83.5159
 20
-45.4004
 11
83.4061
 21
-45.0624
  0
LINE
  8
0
 10
83.4061
 20
-45.0624
 11
83.3689
 21
-44.7089
  0
LINE
  8
0
 10
83.3689
 20
41.2089
 11
83.4061
 21
41.5624
  0
LINE
  8
0
 10
83.4061
 20
41.5624
 11
83.5159
 21
41.9004
  0
LINE
  8
0
 10
83.5159
 20
41.9004
 11
83.6936
 21
42.2081
  0
LINE
  8
0
 10
83.6936
 20
42.2081
 11
83.9314
 21
42.4722
  0
LINE
  8
0
 10
83.9314
 20
42.4722
 11
84.2189
 21
42.6811
  0
LINE
  8
0
 10
84.2189
 20
42.6811
 11
84.5436
 21
42.8257
  0
LINE
  8
0
 10
84.5436
 20
42.8257
 11
84.8912
 21
42.8996
  0
LINE
  8
0
 10
84.8912
 20
42.8996
 11
85.2466
 21
42.8996
  0
LINE
  8
0
 10
85.2466
 20
42.8996
 11
85.5943
 21
42.8257
  0
LINE
  8
0
 10
85.5943
 20
42.8257
 11
85.9189
 21
42.6811
  0
LINE
  8
0
 10
85.9189
 20
42.6811
 11
86.2065
 21
42.4722
  0
LINE
  8
0
 10
86.2065
 20
42.4722
 11
86.4443
 21
42.2081
  0
LINE
  8
0
 10
86.4443
 20
42.2081
 11
86.622
 21
41.9004
  0
LINE
  8
0
 10
86.622
 20
41.9004
 11
86.7318
 21
41.5624
  0
LINE
  8
0
 10
86.7318
 20
41.5624
 11
86.7689
 21
41.2089
  0
LINE
  8
0
 10
86.7689
 20
41.2089
 11
86.7318
 21
40.8555
  0
LINE
  8
0
 10
86.7318
 20
40.8555
 11
86.622
 21
40.5175
  0
LINE
  8
0
 10
86.622
 20
40.5175
 11
86.4443
 21
40.2097
  0
LINE
  8
0
 10
86.4443
 20
40.2097
 11
86.2065
 21
39.9456
  0
LINE
  8
0
 10
86.2065
 20
39.9456
 11
85.9189
 21
39.7367
  0
LINE
  8
0
 10
85.9189
 20
39.7367
 11
85.5943
 21
39.5921
  0
LINE
  8
0
 10
85.5943
 20
39.5921
 11
85.2466
 21
39.5182
  0
LINE
  8
0
 10
85.2466
 20
39.5182
 11
84.8912
 21
39.5182
  0
LINE
  8
0
 10
84.8912
 20
39.5182
 11
84.5436
 21
39.5921
  0
LINE
  8
0
 10
84.5436
 20
39.5921
 11
84.2189
 21
39.7367
  0
LINE
  8
0
 10
84.2189
 20
39.7367
 11
83.9314
 21
39.9456
  0
LINE
  8
0
 10
83.9314
 20
39.9456
 11
83.6936
 21
40.2097
  0
LINE
  8
0
 10
83.6936
 20
40.2097
 11
83.5159
 21
40.5175
  0
LINE
  8
0
 10
83.5159
 20
40.5175
 11
83.4061
 21
40.8555
  0
LINE
  8
0
 10
83.4061
 20
40.8555
 11
83.3689
 21
41.2089
  0
ENDSEC
  0
SECTION
  2
OBJECTS
  0
DICTIONARY
  0
ENDSEC
  0
EOF
