  0
SECTION
  2
BLOCKS
  0
ENDSEC
  0
SECTION
  2
ENTITIES
  0
LINE
  8
0
 10
-70.9164
 20
-58.3187
 11
-70.8559
 21
-58.3961
  0
LINE
  8
0
 10
-70.8559
 20
-58.3961
 11
-62.2088
 21
-69.4738
  0
LINE
  8
0
 10
-62.2088
 20
-69.4738
 11
-60.3528
 21
-71.8515
  0
LINE
  8
0
 10
-60.3528
 20
-71.8515
 11
-60.3528
 21
-71.8515
  0
LINE
  8
0
 10
-60.3528
 20
-71.8515
 11
-59.736
 21
-73.6212
  0
LINE
  8
0
 10
-59.736
 20
-73.6212
 11
-58.5818
 21
-76.6351
  0
LINE
  8
0
 10
-58.5818
 20
-76.6351
 11
-58.5424
 21
-76.6856
  0
LINE
  8
0
 10
-58.5424
 20
-76.6856
 11
-58.52
 21
-76.7143
  0
LINE
  8
0
 10
-58.52
 20
-76.7143
 11
-58.52
 21
-76.7143
  0
LINE
  8
0
 10
-58.52
 20
-76.7143
 11
-50.271
 21
-87.2795
  0
LINE
  8
0
 10
-50.271
 20
-87.2795
 11
-48.0184
 21
-90.1647
  0
LINE
  8
0
 10
-48.0184
 20
-90.1647
 11
-48.0184
 21
-90.1647
  0
LINE
  8
0
 10
-48.0184
 20
-90.1647
 11
-48.0073
 21
-90.1788
  0
LINE
  8
0
 10
-48.0073
 20
-90.1788
 11
-47.9566
 21
-90.2438
  0
LINE
  8
0
 10
-47.9566
 20
-90.2438
 11
-43.5316
 21
-91.0969
  0
LINE
  8
0
 10
-43.5316
 20
-91.0969
 11
-38.2378
 21
-92.1176
  0
LINE
  8
0
 10
-38.2378
 20
-92.1176
 11
-38.1219
 21
-92.0727
  0
LINE
  8
0
 10
-38.1219
 20
-92.0727
 11
-35.2423
 21
-90.9569
  0
LINE
  8
0
 10
-35.2423
 20
-90.9569
 11
-33.3998
 21
-90.243
  0
LINE
  8
0
 10
-33.3998
 20
-90.243
 11
-24.7685
 21
-84.1992
  0
LINE
  8
0
 10
-24.7685
 20
-84.1992
 11
-24.6469
 21
-84.3643
  0
LINE
  8
0
 10
-24.6469
 20
-84.3643
 11
-24.6469
 21
-84.3643
  0
LINE
  8
0
 10
-24.6469
 20
-84.3643
 11
-18.6672
 21
-81.576
  0
LINE
  8
0
 10
-18.6672
 20
-81.576
 11
-18.6669
 21
-81.5758
  0
LINE
  8
0
 10
-18.6669
 20
-81.5758
 11
-10.3463
 21
-77.6958
  0
LINE
  8
0
 10
-10.3463
 20
-77.6958
 11
-10.2976
 21
-77.6731
  0
LINE
  8
0
 10
-10.2976
 20
-77.6731
 11
-9.81579
 21
-77.1132
  0
LINE
  8
0
 10
-9.81579
 20
-77.1132
 11
-9.81577
 21
-77.1132
  0
LINE
  8
0
 10
-9.81577
 20
-77.1132
 11
-9.47153
 21
-76.7131
  0
LINE
  8
0
 10
-9.47153
 20
-76.7131
 11
-7.30186
 21
-65.9051
  0
LINE
  8
0
 10
-7.30186
 20
-65.9051
 11
-5.57945
 21
-57.3251
  0
LINE
  8
0
 10
-5.57945
 20
-57.3251
 11
8.06411
 21
-60.4819
  0
LINE
  8
0
 10
8.06411
 20
-60.4819
 11
14.4131
 21
-61.9509
  0
LINE
  8
0
 10
14.4131
 20
-61.9509
 11
22.9065
 21
-61.9509
  0
LINE
  8
0
 10
22.9065
 20
-61.9509
 11
22.9517
 21
-61.9509
  0
LINE
  8
0
 10
22.9517
 20
-61.9509
 11
35.7834
 21
-61.9509
  0
LINE
  8
0
 10
35.7834
 20
-61.9509
 11
36.0543
 21
-61.0503
  0
LINE
  8
0
 10
36.0543
 20
-61.0503
 11
36.2346
 21
-60.4509
  0
LINE
  8
0
 10
36.2346
 20
-60.4509
 11
38.1013
 21
-53.0924
  0
LINE
  8
0
 10
38.1013
 20
-53.0924
 11
38.9673
 21
-49.6786
  0
LINE
  8
0
 10
38.9673
 20
-49.6786
 11
45.0602
 21
-49.6786
  0
LINE
  8
0
 10
45.0602
 20
-49.6786
 11
51.4266
 21
-49.6786
  0
LINE
  8
0
 10
51.4266
 20
-49.6786
 11
57.3804
 21
-49.6786
  0
LINE
  8
0
 10
57.3804
 20
-49.6786
 11
83.8023
 21
-49.6786
  0
LINE
  8
0
 10
83.8023
 20
-49.6786
 11
87.1056
 21
-46.4878
  0
LINE
  8
0
 10
87.1056
 20
-46.4878
 11
92.8023
 21
-40.9853
  0
LINE
  8
0
 10
92.8023
 20
-40.9853
 11
92.8023
 21
45.6567
  0
LINE
  8
0
 10
92.8023
 20
45.6567
 11
87.4333
 21
50.3063
  0
LINE
  8
0
 10
87.4333
 20
50.3063
 11
83.8023
 21
53.4509
  0
LINE
  8
0
 10
83.8023
 20
53.4509
 11
55.3933
 21
53.4509
  0
LINE
  8
0
 10
55.3933
 20
53.4509
 11
52.5815
 21
53.4509
  0
LINE
  8
0
 10
52.5815
 20
53.4509
 11
41.3488
 21
53.4509
  0
LINE
  8
0
 10
41.3488
 20
53.4509
 11
35.6122
 21
53.4509
  0
LINE
  8
0
 10
35.6122
 20
53.4509
 11
32.7335
 21
59.1943
  0
LINE
  8
0
 10
32.7335
 20
59.1943
 11
31.3518
 21
61.9509
  0
LINE
  8
0
 10
31.3518
 20
61.9509
 11
20.9781
 21
61.9509
  0
LINE
  8
0
 10
20.9781
 20
61.9509
 11
20.9355
 21
61.9509
  0
LINE
  8
0
 10
20.9355
 20
61.9509
 11
14.5116
 21
61.9509
  0
LINE
  8
0
 10
14.5116
 20
61.9509
 11
11.9535
 21
63.8094
  0
LINE
  8
0
 10
11.9535
 20
63.8094
 11
10.5886
 21
64.8009
  0
LINE
  8
0
 10
10.5886
 20
64.8009
 11
0.609915
 21
64.8009
  0
LINE
  8
0
 10
0.609915
 20
64.8009
 11
0.564594
 21
64.8009
  0
LINE
  8
0
 10
0.564594
 20
64.8009
 11
-6.0253
 21
64.8009
  0
LINE
  8
0
 10
-6.0253
 20
64.8009
 11
-7.03412
 21
62.9188
  0
LINE
  8
0
 10
-7.03412
 20
62.9188
 11
-7.55288
 21
61.9509
  0
LINE
  8
0
 10
-7.55288
 20
61.9509
 11
-18.9451
 21
61.9509
  0
LINE
  8
0
 10
-18.9451
 20
61.9509
 11
-23.5983
 21
61.9509
  0
LINE
  8
0
 10
-23.5983
 20
61.9509
 11
-25.5597
 21
61.9509
  0
LINE
  8
0
 10
-25.5597
 20
61.9509
 11
-25.5836
 21
61.9509
  0
LINE
  8
0
 10
-25.5836
 20
61.9509
 11
-26.2074
 21
61.9509
  0
LINE
  8
0
 10
-26.2074
 20
61.9509
 11
-37.9634
 21
61.9509
  0
LINE
  8
0
 10
-37.9634
 20
61.9509
 11
-41.7085
 21
61.9509
  0
LINE
  8
0
 10
-41.7085
 20
61.9509
 11
-41.7271
 21
61.9509
  0
LINE
  8
0
 10
-41.7271
 20
61.9509
 11
-43.3346
 21
59.7712
  0
LINE
  8
0
 10
-43.3346
 20
59.7712
 11
-43.7509
 21
59.2067
  0
LINE
  8
0
 10
-43.7509
 20
59.2067
 11
-52.7509
 21
50.2067
  0
LINE
  8
0
 10
-52.7509
 20
50.2067
 11
-55.5377
 21
38.7854
  0
LINE
  8
0
 10
-55.5377
 20
38.7854
 11
-56.3854
 21
35.3111
  0
LINE
  8
0
 10
-56.3854
 20
35.3111
 11
-56.6398
 21
33.8581
  0
LINE
  8
0
 10
-56.6398
 20
33.8581
 11
-57.2338
 21
30.4647
  0
LINE
  8
0
 10
-57.2338
 20
30.4647
 11
-57.8746
 21
24.8061
  0
LINE
  8
0
 10
-57.8746
 20
24.8061
 11
-59.1152
 21
13.8508
  0
LINE
  8
0
 10
-59.1152
 20
13.8508
 11
-59.306
 21
10.4214
  0
LINE
  8
0
 10
-59.306
 20
10.4214
 11
-59.4045
 21
8.65
  0
LINE
  8
0
 10
-59.4045
 20
8.65
 11
-59.4045
 21
-8.65
  0
LINE
  8
0
 10
-59.4045
 20
-8.65
 11
-59.306
 21
-10.4214
  0
LINE
  8
0
 10
-59.306
 20
-10.4214
 11
-59.1152
 21
-13.8508
  0
LINE
  8
0
 10
-59.1152
 20
-13.8508
 11
-57.8746
 21
-24.8061
  0
LINE
  8
0
 10
-57.8746
 20
-24.8061
 11
-57.2421
 21
-30.3913
  0
LINE
  8
0
 10
-57.2421
 20
-30.3913
 11
-58.5315
 21
-34.5161
  0
LINE
  8
0
 10
-58.5315
 20
-34.5161
 11
-60.0535
 21
-39.3849
  0
LINE
  8
0
 10
-60.0535
 20
-39.3849
 11
-63.5943
 21
-41.8642
  0
LINE
  8
0
 10
-63.5943
 20
-41.8642
 11
-63.5946
 21
-41.8644
  0
LINE
  8
0
 10
-63.5946
 20
-41.8644
 11
-69.0254
 21
-45.6671
  0
LINE
  8
0
 10
-69.0254
 20
-45.6671
 11
-69.0794
 21
-45.705
  0
LINE
  8
0
 10
-69.0794
 20
-45.705
 11
-69.0948
 21
-45.7157
  0
LINE
  8
0
 10
-69.0948
 20
-45.7157
 11
-69.0948
 21
-45.7157
  0
LINE
  8
0
 10
-69.0948
 20
-45.7157
 11
-69.3421
 21
-45.9737
  0
LINE
  8
0
 10
-69.3421
 20
-45.9737
 11
-69.3421
 21
-45.9737
  0
LINE
  8
0
 10
-69.3421
 20
-45.9737
 11
-70.2101
 21
-46.8795
  0
LINE
  8
0
 10
-70.2101
 20
-46.8795
 11
-70.2101
 21
-46.8795
  0
LINE
  8
0
 10
-70.2101
 20
-46.8795
 11
-70.8995
 21
-57.9745
  0
LINE
  8
0
 10
-70.8995
 20
-57.9745
 11
-70.9117
 21
-58.2229
  0
LINE
  8
0
 10
-70.9117
 20
-58.2229
 11
-70.9164
 21
-58.3187
  0
LINE
  8
0
 10
-66.2002
 20
-54.7371
 11
-66.2001
 21
-54.7355
  0
LINE
  8
0
 10
-66.2001
 20
-54.7355
 11
-65.9096
 21
-50.0601
  0
LINE
  8
0
 10
-65.9096
 20
-50.0601
 11
-62.0362
 21
-47.3479
  0
LINE
  8
0
 10
-62.0362
 20
-47.3479
 11
-57.9237
 21
-44.4683
  0
LINE
  8
0
 10
-57.9237
 20
-44.4683
 11
-57.6329
 21
-44.9719
  0
LINE
  8
0
 10
-57.6329
 20
-44.9719
 11
-57.0943
 21
-45.57
  0
LINE
  8
0
 10
-57.0943
 20
-45.57
 11
-56.4432
 21
-46.0431
  0
LINE
  8
0
 10
-56.4432
 20
-46.0431
 11
-55.7079
 21
-46.3705
  0
LINE
  8
0
 10
-55.7079
 20
-46.3705
 11
-54.9206
 21
-46.5378
  0
LINE
  8
0
 10
-54.9206
 20
-46.5378
 11
-54.1157
 21
-46.5378
  0
LINE
  8
0
 10
-54.1157
 20
-46.5378
 11
-53.3285
 21
-46.3705
  0
LINE
  8
0
 10
-53.3285
 20
-46.3705
 11
-52.5932
 21
-46.0431
  0
LINE
  8
0
 10
-52.5932
 20
-46.0431
 11
-51.942
 21
-45.57
  0
LINE
  8
0
 10
-51.942
 20
-45.57
 11
-51.4035
 21
-44.9719
  0
LINE
  8
0
 10
-51.4035
 20
-44.9719
 11
-51.001
 21
-44.2748
  0
LINE
  8
0
 10
-51.001
 20
-44.2748
 11
-50.7523
 21
-43.5094
  0
LINE
  8
0
 10
-50.7523
 20
-43.5094
 11
-50.6682
 21
-42.7089
  0
LINE
  8
0
 10
-50.6682
 20
-42.7089
 11
-50.7523
 21
-41.9084
  0
LINE
  8
0
 10
-50.7523
 20
-41.9084
 11
-51.001
 21
-41.143
  0
LINE
  8
0
 10
-51.001
 20
-41.143
 11
-51.4035
 21
-40.4459
  0
LINE
  8
0
 10
-51.4035
 20
-40.4459
 11
-51.942
 21
-39.8478
  0
LINE
  8
0
 10
-51.942
 20
-39.8478
 11
-52.5932
 21
-39.3747
  0
LINE
  8
0
 10
-52.5932
 20
-39.3747
 11
-53.3285
 21
-39.0473
  0
LINE
  8
0
 10
-53.3285
 20
-39.0473
 11
-54.1157
 21
-38.88
  0
LINE
  8
0
 10
-54.1157
 20
-38.88
 11
-54.1203
 21
-38.88
  0
LINE
  8
0
 10
-54.1203
 20
-38.88
 11
-54.0946
 21
-38.7709
  0
LINE
  8
0
 10
-54.0946
 20
-38.7709
 11
-52.1338
 21
-30.4647
  0
LINE
  8
0
 10
-52.1338
 20
-30.4647
 11
-52.1338
 21
-30.3647
  0
LINE
  8
0
 10
-52.1338
 20
-30.3647
 11
-53.4973
 21
-18.3241
  0
LINE
  8
0
 10
-53.4973
 20
-18.3241
 11
-54.0152
 21
-13.7508
  0
LINE
  8
0
 10
-54.0152
 20
-13.7508
 11
-54.1064
 21
-12.1111
  0
LINE
  8
0
 10
-54.1064
 20
-12.1111
 11
-54.3045
 21
-8.54999
  0
LINE
  8
0
 10
-54.3045
 20
-8.54999
 11
-54.3045
 21
8.54999
  0
LINE
  8
0
 10
-54.3045
 20
8.54999
 11
-54.1064
 21
12.1111
  0
LINE
  8
0
 10
-54.1064
 20
12.1111
 11
-54.0152
 21
13.7508
  0
LINE
  8
0
 10
-54.0152
 20
13.7508
 11
-53.4973
 21
18.3241
  0
LINE
  8
0
 10
-53.4973
 20
18.3241
 11
-52.1338
 21
30.3647
  0
LINE
  8
0
 10
-52.1338
 20
30.3647
 11
-51.9113
 21
31.6358
  0
LINE
  8
0
 10
-51.9113
 20
31.6358
 11
-51.2854
 21
35.2111
  0
LINE
  8
0
 10
-51.2854
 20
35.2111
 11
-48.6041
 21
46.2001
  0
LINE
  8
0
 10
-48.6041
 20
46.2001
 11
-47.6509
 21
50.1067
  0
LINE
  8
0
 10
-47.6509
 20
50.1067
 11
-46.8814
 21
50.8763
  0
LINE
  8
0
 10
-46.8814
 20
50.8763
 11
-46.6329
 21
50.4459
  0
LINE
  8
0
 10
-46.6329
 20
50.4459
 11
-46.0943
 21
49.8478
  0
LINE
  8
0
 10
-46.0943
 20
49.8478
 11
-45.4432
 21
49.3747
  0
LINE
  8
0
 10
-45.4432
 20
49.3747
 11
-44.7079
 21
49.0473
  0
LINE
  8
0
 10
-44.7079
 20
49.0473
 11
-43.9206
 21
48.88
  0
LINE
  8
0
 10
-43.9206
 20
48.88
 11
-43.1157
 21
48.88
  0
LINE
  8
0
 10
-43.1157
 20
48.88
 11
-42.3285
 21
49.0473
  0
LINE
  8
0
 10
-42.3285
 20
49.0473
 11
-41.5932
 21
49.3747
  0
LINE
  8
0
 10
-41.5932
 20
49.3747
 11
-40.942
 21
49.8478
  0
LINE
  8
0
 10
-40.942
 20
49.8478
 11
-40.4035
 21
50.4459
  0
LINE
  8
0
 10
-40.4035
 20
50.4459
 11
-40.001
 21
51.143
  0
LINE
  8
0
 10
-40.001
 20
51.143
 11
-39.7523
 21
51.9084
  0
LINE
  8
0
 10
-39.7523
 20
51.9084
 11
-39.6682
 21
52.7089
  0
LINE
  8
0
 10
-39.6682
 20
52.7089
 11
-39.7523
 21
53.5094
  0
LINE
  8
0
 10
-39.7523
 20
53.5094
 11
-40.001
 21
54.2748
  0
LINE
  8
0
 10
-40.001
 20
54.2748
 11
-40.4035
 21
54.9719
  0
LINE
  8
0
 10
-40.4035
 20
54.9719
 11
-40.942
 21
55.57
  0
LINE
  8
0
 10
-40.942
 20
55.57
 11
-41.5809
 21
56.0342
  0
LINE
  8
0
 10
-41.5809
 20
56.0342
 11
-29.3217
 21
56.0342
  0
LINE
  8
0
 10
-29.3217
 20
56.0342
 11
-26.1401
 21
56.0342
  0
LINE
  8
0
 10
-26.1401
 20
56.0342
 11
-24.1612
 21
56.0342
  0
LINE
  8
0
 10
-24.1612
 20
56.0342
 11
-23.5316
 21
56.0342
  0
LINE
  8
0
 10
-23.5316
 20
56.0342
 11
-11.4398
 21
56.0342
  0
LINE
  8
0
 10
-11.4398
 20
56.0342
 11
-7.44246
 21
56.0342
  0
LINE
  8
0
 10
-7.44246
 20
56.0342
 11
-6.92456
 21
57.0013
  0
LINE
  8
0
 10
-6.92456
 20
57.0013
 11
-5.91628
 21
58.8842
  0
LINE
  8
0
 10
-5.91628
 20
58.8842
 11
4.96816
 21
58.8842
  0
LINE
  8
0
 10
4.96816
 20
58.8842
 11
10.5045
 21
58.8842
  0
LINE
  8
0
 10
10.5045
 20
58.8842
 11
12.8616
 21
57.1691
  0
LINE
  8
0
 10
12.8616
 20
57.1691
 11
14.4214
 21
56.0342
  0
LINE
  8
0
 10
14.4214
 20
56.0342
 11
25.4802
 21
56.0342
  0
LINE
  8
0
 10
25.4802
 20
56.0342
 11
31.2617
 21
56.0342
  0
LINE
  8
0
 10
31.2617
 20
56.0342
 11
33.8718
 21
50.8202
  0
LINE
  8
0
 10
33.8718
 20
50.8202
 11
35.5168
 21
47.5342
  0
LINE
  8
0
 10
35.5168
 20
47.5342
 11
47.1049
 21
47.5342
  0
LINE
  8
0
 10
47.1049
 20
47.5342
 11
52.6175
 21
47.5342
  0
LINE
  8
0
 10
52.6175
 20
47.5342
 11
58.1076
 21
47.5342
  0
LINE
  8
0
 10
58.1076
 20
47.5342
 11
60.9689
 21
47.5342
  0
LINE
  8
0
 10
60.9689
 20
47.5342
 11
80.4736
 21
47.5342
  0
LINE
  8
0
 10
80.4736
 20
47.5342
 11
80.3031
 21
47.0094
  0
LINE
  8
0
 10
80.3031
 20
47.0094
 11
80.2189
 21
46.2089
  0
LINE
  8
0
 10
80.2189
 20
46.2089
 11
80.3031
 21
45.4084
  0
LINE
  8
0
 10
80.3031
 20
45.4084
 11
80.5518
 21
44.643
  0
LINE
  8
0
 10
80.5518
 20
44.643
 11
80.9542
 21
43.9459
  0
LINE
  8
0
 10
80.9542
 20
43.9459
 11
81.4928
 21
43.3478
  0
LINE
  8
0
 10
81.4928
 20
43.3478
 11
82.1439
 21
42.8747
  0
LINE
  8
0
 10
82.1439
 20
42.8747
 11
82.8792
 21
42.5473
  0
LINE
  8
0
 10
82.8792
 20
42.5473
 11
83.6665
 21
42.38
  0
LINE
  8
0
 10
83.6665
 20
42.38
 11
84.4714
 21
42.38
  0
LINE
  8
0
 10
84.4714
 20
42.38
 11
85.2587
 21
42.5473
  0
LINE
  8
0
 10
85.2587
 20
42.5473
 11
85.9939
 21
42.8747
  0
LINE
  8
0
 10
85.9939
 20
42.8747
 11
86.6451
 21
43.3478
  0
LINE
  8
0
 10
86.6451
 20
43.3478
 11
87.1837
 21
43.9459
  0
LINE
  8
0
 10
87.1837
 20
43.9459
 11
87.4043
 21
44.3281
  0
LINE
  8
0
 10
87.4043
 20
44.3281
 11
87.7023
 21
44.0701
  0
LINE
  8
0
 10
87.7023
 20
44.0701
 11
87.7023
 21
34.7054
  0
LINE
  8
0
 10
87.7023
 20
34.7054
 11
87.7023
 21
29.3069
  0
LINE
  8
0
 10
87.7023
 20
29.3069
 11
87.7023
 21
26.4125
  0
LINE
  8
0
 10
87.7023
 20
26.4125
 11
87.7023
 21
23.1504
  0
LINE
  8
0
 10
87.7023
 20
23.1504
 11
87.7023
 21
16.7488
  0
LINE
  8
0
 10
87.7023
 20
16.7488
 11
87.7023
 21
16.7056
  0
LINE
  8
0
 10
87.7023
 20
16.7056
 11
87.7023
 21
10.8212
  0
LINE
  8
0
 10
87.7023
 20
10.8212
 11
87.2348
 21
7.20884
  0
LINE
  8
0
 10
87.2348
 20
7.20884
 11
87.2254
 21
7.136
  0
LINE
  8
0
 10
87.2254
 20
7.136
 11
87.2238
 21
7.12366
  0
LINE
  8
0
 10
87.2238
 20
7.12366
 11
86.8356
 21
1.22683
  0
LINE
  8
0
 10
86.8356
 20
1.22683
 11
86.7614
 21
0.0999994
  0
LINE
  8
0
 10
86.7614
 20
0.0999994
 11
86.7614
 21
-17.1
  0
LINE
  8
0
 10
86.7614
 20
-17.1
 11
86.8356
 21
-18.2268
  0
LINE
  8
0
 10
86.8356
 20
-18.2268
 11
87.2238
 21
-24.1237
  0
LINE
  8
0
 10
87.2238
 20
-24.1237
 11
87.2254
 21
-24.136
  0
LINE
  8
0
 10
87.2254
 20
-24.136
 11
87.2348
 21
-24.2088
  0
LINE
  8
0
 10
87.2348
 20
-24.2088
 11
87.7023
 21
-27.8212
  0
LINE
  8
0
 10
87.7023
 20
-27.8212
 11
87.7023
 21
-33.7056
  0
LINE
  8
0
 10
87.7023
 20
-33.7056
 11
87.7023
 21
-33.7488
  0
LINE
  8
0
 10
87.7023
 20
-33.7488
 11
87.7023
 21
-40.1122
  0
LINE
  8
0
 10
87.7023
 20
-40.1122
 11
87.2456
 21
-40.5533
  0
LINE
  8
0
 10
87.2456
 20
-40.5533
 11
87.1837
 21
-40.4459
  0
LINE
  8
0
 10
87.1837
 20
-40.4459
 11
86.6451
 21
-39.8478
  0
LINE
  8
0
 10
86.6451
 20
-39.8478
 11
85.9939
 21
-39.3747
  0
LINE
  8
0
 10
85.9939
 20
-39.3747
 11
85.2587
 21
-39.0473
  0
LINE
  8
0
 10
85.2587
 20
-39.0473
 11
84.4714
 21
-38.88
  0
LINE
  8
0
 10
84.4714
 20
-38.88
 11
83.6665
 21
-38.88
  0
LINE
  8
0
 10
83.6665
 20
-38.88
 11
82.8792
 21
-39.0473
  0
LINE
  8
0
 10
82.8792
 20
-39.0473
 11
82.1439
 21
-39.3747
  0
LINE
  8
0
 10
82.1439
 20
-39.3747
 11
81.4928
 21
-39.8478
  0
LINE
  8
0
 10
81.4928
 20
-39.8478
 11
80.9542
 21
-40.4459
  0
LINE
  8
0
 10
80.9542
 20
-40.4459
 11
80.5518
 21
-41.143
  0
LINE
  8
0
 10
80.5518
 20
-41.143
 11
80.3031
 21
-41.9084
  0
LINE
  8
0
 10
80.3031
 20
-41.9084
 11
80.2189
 21
-42.7089
  0
LINE
  8
0
 10
80.2189
 20
-42.7089
 11
80.3031
 21
-43.5094
  0
LINE
  8
0
 10
80.3031
 20
-43.5094
 11
80.4547
 21
-43.9759
  0
LINE
  8
0
 10
80.4547
 20
-43.9759
 11
60.9689
 21
-43.9759
  0
LINE
  8
0
 10
60.9689
 20
-43.9759
 11
55.5693
 21
-43.9759
  0
LINE
  8
0
 10
55.5693
 20
-43.9759
 11
51.5445
 21
-43.9759
  0
LINE
  8
0
 10
51.5445
 20
-43.9759
 11
42.5873
 21
-43.9759
  0
LINE
  8
0
 10
42.5873
 20
-43.9759
 11
34.4668
 21
-43.9759
  0
LINE
  8
0
 10
34.4668
 20
-43.9759
 11
34.3471
 21
-44.3439
  0
LINE
  8
0
 10
34.3471
 20
-44.3439
 11
34.2142
 21
-44.7524
  0
LINE
  8
0
 10
34.2142
 20
-44.7524
 11
34.2801
 21
-47.575
  0
LINE
  8
0
 10
34.2801
 20
-47.575
 11
34.3283
 21
-49.6374
  0
LINE
  8
0
 10
34.3283
 20
-49.6374
 11
34.3283
 21
-49.6374
  0
LINE
  8
0
 10
34.3283
 20
-49.6374
 11
34.3293
 21
-49.6786
  0
LINE
  8
0
 10
34.3293
 20
-49.6786
 11
34.886
 21
-49.6786
  0
LINE
  8
0
 10
34.886
 20
-49.6786
 11
34.7162
 21
-50.3122
  0
LINE
  8
0
 10
34.7162
 20
-50.3122
 11
33.1822
 21
-56.0342
  0
LINE
  8
0
 10
33.1822
 20
-56.0342
 11
26.7661
 21
-56.0342
  0
LINE
  8
0
 10
26.7661
 20
-56.0342
 11
14.5199
 21
-56.0342
  0
LINE
  8
0
 10
14.5199
 20
-56.0342
 11
7.65983
 21
-54.5668
  0
LINE
  8
0
 10
7.65983
 20
-54.5668
 11
-6.55625
 21
-51.5259
  0
LINE
  8
0
 10
-6.55625
 20
-51.5259
 11
-6.62041
 21
-51.5372
  0
LINE
  8
0
 10
-6.62041
 20
-51.5372
 11
-6.65137
 21
-51.5427
  0
LINE
  8
0
 10
-6.65137
 20
-51.5427
 11
-6.65137
 21
-51.5427
  0
LINE
  8
0
 10
-6.65137
 20
-51.5427
 11
-7.06663
 21
-52.1128
  0
LINE
  8
0
 10
-7.06663
 20
-52.1128
 11
-7.26729
 21
-52.3882
  0
LINE
  8
0
 10
-7.26729
 20
-52.3882
 11
-11.1595
 21
-67.0582
  0
LINE
  8
0
 10
-11.1595
 20
-67.0582
 11
-12.6432
 21
-72.6504
  0
LINE
  8
0
 10
-12.6432
 20
-72.6504
 11
-12.6792
 21
-72.6672
  0
LINE
  8
0
 10
-12.6792
 20
-72.6672
 11
-12.8782
 21
-72.0549
  0
LINE
  8
0
 10
-12.8782
 20
-72.0549
 11
-13.2806
 21
-71.3579
  0
LINE
  8
0
 10
-13.2806
 20
-71.3579
 11
-13.8192
 21
-70.7597
  0
LINE
  8
0
 10
-13.8192
 20
-70.7597
 11
-14.4703
 21
-70.2866
  0
LINE
  8
0
 10
-14.4703
 20
-70.2866
 11
-15.2056
 21
-69.9593
  0
LINE
  8
0
 10
-15.2056
 20
-69.9593
 11
-15.9929
 21
-69.7919
  0
LINE
  8
0
 10
-15.9929
 20
-69.7919
 11
-16.7978
 21
-69.7919
  0
LINE
  8
0
 10
-16.7978
 20
-69.7919
 11
-17.585
 21
-69.9593
  0
LINE
  8
0
 10
-17.585
 20
-69.9593
 11
-18.3203
 21
-70.2866
  0
LINE
  8
0
 10
-18.3203
 20
-70.2866
 11
-18.9715
 21
-70.7597
  0
LINE
  8
0
 10
-18.9715
 20
-70.7597
 11
-19.51
 21
-71.3579
  0
LINE
  8
0
 10
-19.51
 20
-71.3579
 11
-19.9125
 21
-72.0549
  0
LINE
  8
0
 10
-19.9125
 20
-72.0549
 11
-20.1612
 21
-72.8204
  0
LINE
  8
0
 10
-20.1612
 20
-72.8204
 11
-20.2453
 21
-73.6208
  0
LINE
  8
0
 10
-20.2453
 20
-73.6208
 11
-20.1612
 21
-74.4213
  0
LINE
  8
0
 10
-20.1612
 20
-74.4213
 11
-19.9125
 21
-75.1868
  0
LINE
  8
0
 10
-19.9125
 20
-75.1868
 11
-19.5243
 21
-75.8591
  0
LINE
  8
0
 10
-19.5243
 20
-75.8591
 11
-19.7217
 21
-75.9511
  0
LINE
  8
0
 10
-19.7217
 20
-75.9511
 11
-26.1736
 21
-78.9597
  0
LINE
  8
0
 10
-26.1736
 20
-78.9597
 11
-26.1736
 21
-78.9597
  0
LINE
  8
0
 10
-26.1736
 20
-78.9597
 11
-26.2973
 21
-78.9217
  0
LINE
  8
0
 10
-26.2973
 20
-78.9217
 11
-26.5223
 21
-78.8526
  0
LINE
  8
0
 10
-26.5223
 20
-78.8526
 11
-30.4948
 21
-81.6342
  0
LINE
  8
0
 10
-30.4948
 20
-81.6342
 11
-32.8992
 21
-83.3178
  0
LINE
  8
0
 10
-32.8992
 20
-83.3178
 11
-41.6363
 21
-87.0537
  0
LINE
  8
0
 10
-41.6363
 20
-87.0537
 11
-41.6363
 21
-87.0537
  0
LINE
  8
0
 10
-41.6363
 20
-87.0537
 11
-43.6395
 21
-86.6986
  0
LINE
  8
0
 10
-43.6395
 20
-86.6986
 11
-43.6395
 21
-86.6986
  0
LINE
  8
0
 10
-43.6395
 20
-86.6986
 11
-47.3499
 21
-81.8985
  0
LINE
  8
0
 10
-47.3499
 20
-81.8985
 11
-54.0761
 21
-73.1967
  0
LINE
  8
0
 10
-54.0761
 20
-73.1967
 11
-54.6301
 21
-71.2299
  0
LINE
  8
0
 10
-54.6301
 20
-71.2299
 11
-55.7032
 21
-68.322
  0
LINE
  8
0
 10
-55.7032
 20
-68.322
 11
-55.7137
 21
-68.3085
  0
LINE
  8
0
 10
-55.7137
 20
-68.3085
 11
-55.744
 21
-68.2693
  0
LINE
  8
0
 10
-55.744
 20
-68.2693
 11
-57.2324
 21
-66.343
  0
LINE
  8
0
 10
-57.2324
 20
-66.343
 11
-66.1774
 21
-54.7662
  0
LINE
  8
0
 10
-66.1774
 20
-54.7662
 11
-66.1968
 21
-54.7415
  0
LINE
  8
0
 10
-66.1968
 20
-54.7415
 11
-66.2002
 21
-54.7371
  0
LINE
  8
0
 10
-56.2182
 20
-42.7089
 11
-56.181
 21
-42.3555
  0
LINE
  8
0
 10
-56.181
 20
-42.3555
 11
-56.0712
 21
-42.0175
  0
LINE
  8
0
 10
-56.0712
 20
-42.0175
 11
-55.8935
 21
-41.7097
  0
LINE
  8
0
 10
-55.8935
 20
-41.7097
 11
-55.6557
 21
-41.4456
  0
LINE
  8
0
 10
-55.6557
 20
-41.4456
 11
-55.3682
 21
-41.2367
  0
LINE
  8
0
 10
-55.3682
 20
-41.2367
 11
-55.0435
 21
-41.0921
  0
LINE
  8
0
 10
-55.0435
 20
-41.0921
 11
-54.6959
 21
-41.0182
  0
LINE
  8
0
 10
-54.6959
 20
-41.0182
 11
-54.3405
 21
-41.0182
  0
LINE
  8
0
 10
-54.3405
 20
-41.0182
 11
-53.9929
 21
-41.0921
  0
LINE
  8
0
 10
-53.9929
 20
-41.0921
 11
-53.6682
 21
-41.2367
  0
LINE
  8
0
 10
-53.6682
 20
-41.2367
 11
-53.3807
 21
-41.4456
  0
LINE
  8
0
 10
-53.3807
 20
-41.4456
 11
-53.1429
 21
-41.7097
  0
LINE
  8
0
 10
-53.1429
 20
-41.7097
 11
-52.9652
 21
-42.0175
  0
LINE
  8
0
 10
-52.9652
 20
-42.0175
 11
-52.8553
 21
-42.3555
  0
LINE
  8
0
 10
-52.8553
 20
-42.3555
 11
-52.8182
 21
-42.7089
  0
LINE
  8
0
 10
-52.8182
 20
-42.7089
 11
-52.8553
 21
-43.0624
  0
LINE
  8
0
 10
-52.8553
 20
-43.0624
 11
-52.9652
 21
-43.4004
  0
LINE
  8
0
 10
-52.9652
 20
-43.4004
 11
-53.1429
 21
-43.7081
  0
LINE
  8
0
 10
-53.1429
 20
-43.7081
 11
-53.3807
 21
-43.9722
  0
LINE
  8
0
 10
-53.3807
 20
-43.9722
 11
-53.6682
 21
-44.1811
  0
LINE
  8
0
 10
-53.6682
 20
-44.1811
 11
-53.9929
 21
-44.3257
  0
LINE
  8
0
 10
-53.9929
 20
-44.3257
 11
-54.3405
 21
-44.3996
  0
LINE
  8
0
 10
-54.3405
 20
-44.3996
 11
-54.6959
 21
-44.3996
  0
LINE
  8
0
 10
-54.6959
 20
-44.3996
 11
-55.0435
 21
-44.3257
  0
LINE
  8
0
 10
-55.0435
 20
-44.3257
 11
-55.3682
 21
-44.1811
  0
LINE
  8
0
 10
-55.3682
 20
-44.1811
 11
-55.6557
 21
-43.9722
  0
LINE
  8
0
 10
-55.6557
 20
-43.9722
 11
-55.8935
 21
-43.7081
  0
LINE
  8
0
 10
-55.8935
 20
-43.7081
 11
-56.0712
 21
-43.4004
  0
LINE
  8
0
 10
-56.0712
 20
-43.4004
 11
-56.181
 21
-43.0624
  0
LINE
  8
0
 10
-56.181
 20
-43.0624
 11
-56.2182
 21
-42.7089
  0
LINE
  8
0
 10
-45.2182
 20
52.7089
 11
-45.181
 21
53.0624
  0
LINE
  8
0
 10
-45.181
 20
53.0624
 11
-45.0712
 21
53.4004
  0
LINE
  8
0
 10
-45.0712
 20
53.4004
 11
-44.8935
 21
53.7081
  0
LINE
  8
0
 10
-44.8935
 20
53.7081
 11
-44.6557
 21
53.9722
  0
LINE
  8
0
 10
-44.6557
 20
53.9722
 11
-44.3682
 21
54.1811
  0
LINE
  8
0
 10
-44.3682
 20
54.1811
 11
-44.0435
 21
54.3257
  0
LINE
  8
0
 10
-44.0435
 20
54.3257
 11
-43.6959
 21
54.3996
  0
LINE
  8
0
 10
-43.6959
 20
54.3996
 11
-43.3405
 21
54.3996
  0
LINE
  8
0
 10
-43.3405
 20
54.3996
 11
-42.9929
 21
54.3257
  0
LINE
  8
0
 10
-42.9929
 20
54.3257
 11
-42.6682
 21
54.1811
  0
LINE
  8
0
 10
-42.6682
 20
54.1811
 11
-42.3807
 21
53.9722
  0
LINE
  8
0
 10
-42.3807
 20
53.9722
 11
-42.1429
 21
53.7081
  0
LINE
  8
0
 10
-42.1429
 20
53.7081
 11
-41.9652
 21
53.4004
  0
LINE
  8
0
 10
-41.9652
 20
53.4004
 11
-41.8553
 21
53.0624
  0
LINE
  8
0
 10
-41.8553
 20
53.0624
 11
-41.8182
 21
52.7089
  0
LINE
  8
0
 10
-41.8182
 20
52.7089
 11
-41.8553
 21
52.3555
  0
LINE
  8
0
 10
-41.8553
 20
52.3555
 11
-41.9652
 21
52.0175
  0
LINE
  8
0
 10
-41.9652
 20
52.0175
 11
-42.1429
 21
51.7097
  0
LINE
  8
0
 10
-42.1429
 20
51.7097
 11
-42.3807
 21
51.4456
  0
LINE
  8
0
 10
-42.3807
 20
51.4456
 11
-42.6682
 21
51.2367
  0
LINE
  8
0
 10
-42.6682
 20
51.2367
 11
-42.9929
 21
51.0921
  0
LINE
  8
0
 10
-42.9929
 20
51.0921
 11
-43.3405
 21
51.0182
  0
LINE
  8
0
 10
-43.3405
 20
51.0182
 11
-43.6959
 21
51.0182
  0
LINE
  8
0
 10
-43.6959
 20
51.0182
 11
-44.0435
 21
51.0921
  0
LINE
  8
0
 10
-44.0435
 20
51.0921
 11
-44.3682
 21
51.2367
  0
LINE
  8
0
 10
-44.3682
 20
51.2367
 11
-44.6557
 21
51.4456
  0
LINE
  8
0
 10
-44.6557
 20
51.4456
 11
-44.8935
 21
51.7097
  0
LINE
  8
0
 10
-44.8935
 20
51.7097
 11
-45.0712
 21
52.0175
  0
LINE
  8
0
 10
-45.0712
 20
52.0175
 11
-45.181
 21
52.3555
  0
LINE
  8
0
 10
-45.181
 20
52.3555
 11
-45.2182
 21
52.7089
  0
LINE
  8
0
 10
-18.0953
 20
-73.6208
 11
-18.0582
 21
-73.2674
  0
LINE
  8
0
 10
-18.0582
 20
-73.2674
 11
-17.9484
 21
-72.9294
  0
LINE
  8
0
 10
-17.9484
 20
-72.9294
 11
-17.7707
 21
-72.6216
  0
LINE
  8
0
 10
-17.7707
 20
-72.6216
 11
-17.5328
 21
-72.3575
  0
LINE
  8
0
 10
-17.5328
 20
-72.3575
 11
-17.2453
 21
-72.1486
  0
LINE
  8
0
 10
-17.2453
 20
-72.1486
 11
-16.9207
 21
-72.004
  0
LINE
  8
0
 10
-16.9207
 20
-72.004
 11
-16.573
 21
-71.9301
  0
LINE
  8
0
 10
-16.573
 20
-71.9301
 11
-16.2176
 21
-71.9301
  0
LINE
  8
0
 10
-16.2176
 20
-71.9301
 11
-15.87
 21
-72.004
  0
LINE
  8
0
 10
-15.87
 20
-72.004
 11
-15.5453
 21
-72.1486
  0
LINE
  8
0
 10
-15.5453
 20
-72.1486
 11
-15.2578
 21
-72.3575
  0
LINE
  8
0
 10
-15.2578
 20
-72.3575
 11
-15.02
 21
-72.6216
  0
LINE
  8
0
 10
-15.02
 20
-72.6216
 11
-14.8423
 21
-72.9294
  0
LINE
  8
0
 10
-14.8423
 20
-72.9294
 11
-14.7325
 21
-73.2674
  0
LINE
  8
0
 10
-14.7325
 20
-73.2674
 11
-14.6953
 21
-73.6208
  0
LINE
  8
0
 10
-14.6953
 20
-73.6208
 11
-14.7325
 21
-73.9743
  0
LINE
  8
0
 10
-14.7325
 20
-73.9743
 11
-14.8423
 21
-74.3123
  0
LINE
  8
0
 10
-14.8423
 20
-74.3123
 11
-15.02
 21
-74.6201
  0
LINE
  8
0
 10
-15.02
 20
-74.6201
 11
-15.2578
 21
-74.8842
  0
LINE
  8
0
 10
-15.2578
 20
-74.8842
 11
-15.5453
 21
-75.0931
  0
LINE
  8
0
 10
-15.5453
 20
-75.0931
 11
-15.87
 21
-75.2376
  0
LINE
  8
0
 10
-15.87
 20
-75.2376
 11
-16.2176
 21
-75.3115
  0
LINE
  8
0
 10
-16.2176
 20
-75.3115
 11
-16.573
 21
-75.3115
  0
LINE
  8
0
 10
-16.573
 20
-75.3115
 11
-16.9207
 21
-75.2376
  0
LINE
  8
0
 10
-16.9207
 20
-75.2376
 11
-17.2453
 21
-75.0931
  0
LINE
  8
0
 10
-17.2453
 20
-75.0931
 11
-17.5328
 21
-74.8842
  0
LINE
  8
0
 10
-17.5328
 20
-74.8842
 11
-17.7707
 21
-74.6201
  0
LINE
  8
0
 10
-17.7707
 20
-74.6201
 11
-17.9484
 21
-74.3123
  0
LINE
  8
0
 10
-17.9484
 20
-74.3123
 11
-18.0582
 21
-73.9743
  0
LINE
  8
0
 10
-18.0582
 20
-73.9743
 11
-18.0953
 21
-73.6208
  0
LINE
  8
0
 10
82.3689
 20
-42.7089
 11
82.4061
 21
-42.3555
  0
LINE
  8
0
 10
82.4061
 20
-42.3555
 11
82.5159
 21
-42.0175
  0
LINE
  8
0
 10
82.5159
 20
-42.0175
 11
82.6936
 21
-41.7097
  0
LINE
  8
0
 10
82.6936
 20
-41.7097
 11
82.9314
 21
-41.4456
  0
LINE
  8
0
 10
82.9314
 20
-41.4456
 11
83.2189
 21
-41.2367
  0
LINE
  8
0
 10
83.2189
 20
-41.2367
 11
83.5436
 21
-41.0921
  0
LINE
  8
0
 10
83.5436
 20
-41.0921
 11
83.8912
 21
-41.0182
  0
LINE
  8
0
 10
83.8912
 20
-41.0182
 11
84.2466
 21
-41.0182
  0
LINE
  8
0
 10
84.2466
 20
-41.0182
 11
84.5943
 21
-41.0921
  0
LINE
  8
0
 10
84.5943
 20
-41.0921
 11
84.9189
 21
-41.2367
  0
LINE
  8
0
 10
84.9189
 20
-41.2367
 11
85.2065
 21
-41.4456
  0
LINE
  8
0
 10
85.2065
 20
-41.4456
 11
85.4443
 21
-41.7097
  0
LINE
  8
0
 10
85.4443
 20
-41.7097
 11
85.622
 21
-42.0175
  0
LINE
  8
0
 10
85.622
 20
-42.0175
 11
85.7318
 21
-42.3555
  0
LINE
  8
0
 10
85.7318
 20
-42.3555
 11
85.7689
 21
-42.7089
  0
LINE
  8
0
 10
85.7689
 20
-42.7089
 11
85.7318
 21
-43.0624
  0
LINE
  8
0
 10
85.7318
 20
-43.0624
 11
85.622
 21
-43.4004
  0
LINE
  8
0
 10
85.622
 20
-43.4004
 11
85.4443
 21
-43.7081
  0
LINE
  8
0
 10
85.4443
 20
-43.7081
 11
85.2065
 21
-43.9722
  0
LINE
  8
0
 10
85.2065
 20
-43.9722
 11
84.9189
 21
-44.1811
  0
LINE
  8
0
 10
84.9189
 20
-44.1811
 11
84.5943
 21
-44.3257
  0
LINE
  8
0
 10
84.5943
 20
-44.3257
 11
84.2466
 21
-44.3996
  0
LINE
  8
0
 10
84.2466
 20
-44.3996
 11
83.8912
 21
-44.3996
  0
LINE
  8
0
 10
83.8912
 20
-44.3996
 11
83.5436
 21
-44.3257
  0
LINE
  8
0
 10
83.5436
 20
-44.3257
 11
83.2189
 21
-44.1811
  0
LINE
  8
0
 10
83.2189
 20
-44.1811
 11
82.9314
 21
-43.9722
  0
LINE
  8
0
 10
82.9314
 20
-43.9722
 11
82.6936
 21
-43.7081
  0
LINE
  8
0
 10
82.6936
 20
-43.7081
 11
82.5159
 21
-43.4004
  0
LINE
  8
0
 10
82.5159
 20
-43.4004
 11
82.4061
 21
-43.0624
  0
LINE
  8
0
 10
82.4061
 20
-43.0624
 11
82.3689
 21
-42.7089
  0
LINE
  8
0
 10
82.3689
 20
46.2089
 11
82.4061
 21
46.5624
  0
LINE
  8
0
 10
82.4061
 20
46.5624
 11
82.5159
 21
46.9004
  0
LINE
  8
0
 10
82.5159
 20
46.9004
 11
82.6936
 21
47.2081
  0
LINE
  8
0
 10
82.6936
 20
47.2081
 11
82.9314
 21
47.4722
  0
LINE
  8
0
 10
82.9314
 20
47.4722
 11
83.2189
 21
47.6811
  0
LINE
  8
0
 10
83.2189
 20
47.6811
 11
83.5436
 21
47.8257
  0
LINE
  8
0
 10
83.5436
 20
47.8257
 11
83.8912
 21
47.8996
  0
LINE
  8
0
 10
83.8912
 20
47.8996
 11
84.2466
 21
47.8996
  0
LINE
  8
0
 10
84.2466
 20
47.8996
 11
84.5943
 21
47.8257
  0
LINE
  8
0
 10
84.5943
 20
47.8257
 11
84.9189
 21
47.6811
  0
LINE
  8
0
 10
84.9189
 20
47.6811
 11
85.2065
 21
47.4722
  0
LINE
  8
0
 10
85.2065
 20
47.4722
 11
85.4443
 21
47.2081
  0
LINE
  8
0
 10
85.4443
 20
47.2081
 11
85.622
 21
46.9004
  0
LINE
  8
0
 10
85.622
 20
46.9004
 11
85.7318
 21
46.5624
  0
LINE
  8
0
 10
85.7318
 20
46.5624
 11
85.7689
 21
46.2089
  0
LINE
  8
0
 10
85.7689
 20
46.2089
 11
85.7318
 21
45.8555
  0
LINE
  8
0
 10
85.7318
 20
45.8555
 11
85.622
 21
45.5175
  0
LINE
  8
0
 10
85.622
 20
45.5175
 11
85.4443
 21
45.2097
  0
LINE
  8
0
 10
85.4443
 20
45.2097
 11
85.2065
 21
44.9456
  0
LINE
  8
0
 10
85.2065
 20
44.9456
 11
84.9189
 21
44.7367
  0
LINE
  8
0
 10
84.9189
 20
44.7367
 11
84.5943
 21
44.5921
  0
LINE
  8
0
 10
84.5943
 20
44.5921
 11
84.2466
 21
44.5182
  0
LINE
  8
0
 10
84.2466
 20
44.5182
 11
83.8912
 21
44.5182
  0
LINE
  8
0
 10
83.8912
 20
44.5182
 11
83.5436
 21
44.5921
  0
LINE
  8
0
 10
83.5436
 20
44.5921
 11
83.2189
 21
44.7367
  0
LINE
  8
0
 10
83.2189
 20
44.7367
 11
82.9314
 21
44.9456
  0
LINE
  8
0
 10
82.9314
 20
44.9456
 11
82.6936
 21
45.2097
  0
LINE
  8
0
 10
82.6936
 20
45.2097
 11
82.5159
 21
45.5175
  0
LINE
  8
0
 10
82.5159
 20
45.5175
 11
82.4061
 21
45.8555
  0
LINE
  8
0
 10
82.4061
 20
45.8555
 11
82.3689
 21
46.2089
  0
ENDSEC
  0
SECTION
  2
OBJECTS
  0
DICTIONARY
  0
ENDSEC
  0
EOF
