  0
SECTION
  2
BLOCKS
  0
ENDSEC
  0
SECTION
  2
ENTITIES
  0
LINE
  8
0
 10
-70.9199
 20
-58.3033
 11
-70.8783
 21
-58.3562
  0
LINE
  8
0
 10
-70.8783
 20
-58.3562
 11
-67.4712
 21
-62.6878
  0
LINE
  8
0
 10
-67.4712
 20
-62.6878
 11
-60.3896
 21
-71.6908
  0
LINE
  8
0
 10
-60.3896
 20
-71.6908
 11
-58.6009
 21
-75.9183
  0
LINE
  8
0
 10
-58.6009
 20
-75.9183
 11
-58.5488
 21
-76.0544
  0
LINE
  8
0
 10
-58.5488
 20
-76.0544
 11
-58.5481
 21
-76.0553
  0
LINE
  8
0
 10
-58.5481
 20
-76.0553
 11
-58.5462
 21
-76.0577
  0
LINE
  8
0
 10
-58.5462
 20
-76.0577
 11
-58.3891
 21
-76.259
  0
LINE
  8
0
 10
-58.3891
 20
-76.259
 11
-47.9854
 21
-89.5839
  0
LINE
  8
0
 10
-47.9854
 20
-89.5839
 11
-47.9854
 21
-89.5839
  0
LINE
  8
0
 10
-47.9854
 20
-89.5839
 11
-47.9359
 21
-89.6474
  0
LINE
  8
0
 10
-47.9359
 20
-89.6474
 11
-47.9236
 21
-89.6631
  0
LINE
  8
0
 10
-47.9236
 20
-89.6631
 11
-43.5516
 21
-90.506
  0
LINE
  8
0
 10
-43.5516
 20
-90.506
 11
-36.2364
 21
-92.2292
  0
LINE
  8
0
 10
-36.2364
 20
-92.2292
 11
-36.2222
 21
-92.2192
  0
LINE
  8
0
 10
-36.2222
 20
-92.2192
 11
-36.1684
 21
-92.1816
  0
LINE
  8
0
 10
-36.1684
 20
-92.1816
 11
-33.7044
 21
-90.4563
  0
LINE
  8
0
 10
-33.7044
 20
-90.4563
 11
-33.7042
 21
-90.4561
  0
LINE
  8
0
 10
-33.7042
 20
-90.4561
 11
-24.7685
 21
-84.1992
  0
LINE
  8
0
 10
-24.7685
 20
-84.1992
 11
-24.6469
 21
-84.3643
  0
LINE
  8
0
 10
-24.6469
 20
-84.3643
 11
-24.6469
 21
-84.3643
  0
LINE
  8
0
 10
-24.6469
 20
-84.3643
 11
-19.6899
 21
-82.0529
  0
LINE
  8
0
 10
-19.6899
 20
-82.0529
 11
-19.6896
 21
-82.0527
  0
LINE
  8
0
 10
-19.6896
 20
-82.0527
 11
-10.3522
 21
-77.6986
  0
LINE
  8
0
 10
-10.3522
 20
-77.6986
 11
-10.2976
 21
-77.6731
  0
LINE
  8
0
 10
-10.2976
 20
-77.6731
 11
-9.75691
 21
-77.0448
  0
LINE
  8
0
 10
-9.75691
 20
-77.0448
 11
-9.75689
 21
-77.0448
  0
LINE
  8
0
 10
-9.75689
 20
-77.0448
 11
-9.47153
 21
-76.7131
  0
LINE
  8
0
 10
-9.47153
 20
-76.7131
 11
-6.93991
 21
-64.1021
  0
LINE
  8
0
 10
-6.93991
 20
-64.1021
 11
-5.57945
 21
-57.3251
  0
LINE
  8
0
 10
-5.57945
 20
-57.3251
 11
8.90789
 21
-60.6772
  0
LINE
  8
0
 10
8.90789
 20
-60.6772
 11
14.4131
 21
-61.9509
  0
LINE
  8
0
 10
14.4131
 20
-61.9509
 11
21.5047
 21
-61.9509
  0
LINE
  8
0
 10
21.5047
 20
-61.9509
 11
21.5417
 21
-61.9509
  0
LINE
  8
0
 10
21.5417
 20
-61.9509
 11
35.7834
 21
-61.9509
  0
LINE
  8
0
 10
35.7834
 20
-61.9509
 11
36.0841
 21
-60.9513
  0
LINE
  8
0
 10
36.0841
 20
-60.9513
 11
36.2346
 21
-60.4509
  0
LINE
  8
0
 10
36.2346
 20
-60.4509
 11
38.2632
 21
-53.493
  0
LINE
  8
0
 10
38.2632
 20
-53.493
 11
38.9379
 21
-51.1786
  0
LINE
  8
0
 10
38.9379
 20
-51.1786
 11
42.5206
 21
-51.1786
  0
LINE
  8
0
 10
42.5206
 20
-51.1786
 11
51.4118
 21
-51.1786
  0
LINE
  8
0
 10
51.4118
 20
-51.1786
 11
55.945
 21
-51.1786
  0
LINE
  8
0
 10
55.945
 20
-51.1786
 11
83.8023
 21
-51.1786
  0
LINE
  8
0
 10
83.8023
 20
-51.1786
 11
88.4648
 21
-46.675
  0
LINE
  8
0
 10
88.4648
 20
-46.675
 11
92.8023
 21
-42.4853
  0
LINE
  8
0
 10
92.8023
 20
-42.4853
 11
92.8023
 21
44.1567
  0
LINE
  8
0
 10
92.8023
 20
44.1567
 11
86.8289
 21
49.3299
  0
LINE
  8
0
 10
86.8289
 20
49.3299
 11
83.8023
 21
51.9509
  0
LINE
  8
0
 10
83.8023
 20
51.9509
 11
54.9813
 21
51.9509
  0
LINE
  8
0
 10
54.9813
 20
51.9509
 11
52.5766
 21
51.9509
  0
LINE
  8
0
 10
52.5766
 20
51.9509
 11
40.5067
 21
51.9509
  0
LINE
  8
0
 10
40.5067
 20
51.9509
 11
35.6122
 21
51.9509
  0
LINE
  8
0
 10
35.6122
 20
51.9509
 11
32.5423
 21
59.1565
  0
LINE
  8
0
 10
32.5423
 20
59.1565
 11
31.3518
 21
61.9509
  0
LINE
  8
0
 10
31.3518
 20
61.9509
 11
19.9212
 21
61.9509
  0
LINE
  8
0
 10
19.9212
 20
61.9509
 11
19.8861
 21
61.9509
  0
LINE
  8
0
 10
19.8861
 20
61.9509
 11
14.5116
 21
61.9509
  0
LINE
  8
0
 10
14.5116
 20
61.9509
 11
11.753
 21
65.4669
  0
LINE
  8
0
 10
11.753
 20
65.4669
 11
10.5886
 21
66.9509
  0
LINE
  8
0
 10
10.5886
 20
66.9509
 11
-0.485388
 21
66.9509
  0
LINE
  8
0
 10
-0.485388
 20
66.9509
 11
-0.522299
 21
66.9509
  0
LINE
  8
0
 10
-0.522299
 20
66.9509
 11
-6.0253
 21
66.9509
  0
LINE
  8
0
 10
-6.0253
 20
66.9509
 11
-7.10878
 21
63.4046
  0
LINE
  8
0
 10
-7.10878
 20
63.4046
 11
-7.55288
 21
61.9509
  0
LINE
  8
0
 10
-7.55288
 20
61.9509
 11
-19.531
 21
61.9509
  0
LINE
  8
0
 10
-19.531
 20
61.9509
 11
-23.6009
 21
61.9509
  0
LINE
  8
0
 10
-23.6009
 20
61.9509
 11
-25.6329
 21
61.9509
  0
LINE
  8
0
 10
-25.6329
 20
61.9509
 11
-25.6541
 21
61.9509
  0
LINE
  8
0
 10
-25.6541
 20
61.9509
 11
-26.2097
 21
61.9509
  0
LINE
  8
0
 10
-26.2097
 20
61.9509
 11
-38.3653
 21
61.9509
  0
LINE
  8
0
 10
-38.3653
 20
61.9509
 11
-41.7102
 21
61.9509
  0
LINE
  8
0
 10
-41.7102
 20
61.9509
 11
-41.7271
 21
61.9509
  0
LINE
  8
0
 10
-41.7271
 20
61.9509
 11
-43.3731
 21
59.719
  0
LINE
  8
0
 10
-43.3731
 20
59.719
 11
-43.7509
 21
59.2067
  0
LINE
  8
0
 10
-43.7509
 20
59.2067
 11
-52.7509
 21
50.2067
  0
LINE
  8
0
 10
-52.7509
 20
50.2067
 11
-55.6255
 21
38.4258
  0
LINE
  8
0
 10
-55.6255
 20
38.4258
 11
-56.3854
 21
35.3111
  0
LINE
  8
0
 10
-56.3854
 20
35.3111
 11
-56.6069
 21
34.0459
  0
LINE
  8
0
 10
-56.6069
 20
34.0459
 11
-57.2338
 21
30.4647
  0
LINE
  8
0
 10
-57.2338
 20
30.4647
 11
-57.7821
 21
25.6225
  0
LINE
  8
0
 10
-57.7821
 20
25.6225
 11
-59.1152
 21
13.8508
  0
LINE
  8
0
 10
-59.1152
 20
13.8508
 11
-59.3202
 21
10.1658
  0
LINE
  8
0
 10
-59.3202
 20
10.1658
 11
-59.4045
 21
8.65
  0
LINE
  8
0
 10
-59.4045
 20
8.65
 11
-59.4045
 21
-8.65
  0
LINE
  8
0
 10
-59.4045
 20
-8.65
 11
-59.3202
 21
-10.1658
  0
LINE
  8
0
 10
-59.3202
 20
-10.1658
 11
-59.1152
 21
-13.8508
  0
LINE
  8
0
 10
-59.1152
 20
-13.8508
 11
-57.7821
 21
-25.6225
  0
LINE
  8
0
 10
-57.7821
 20
-25.6225
 11
-57.2421
 21
-30.3913
  0
LINE
  8
0
 10
-57.2421
 20
-30.3913
 11
-58.3009
 21
-33.7784
  0
LINE
  8
0
 10
-58.3009
 20
-33.7784
 11
-60.0535
 21
-39.3849
  0
LINE
  8
0
 10
-60.0535
 20
-39.3849
 11
-64.5967
 21
-42.5661
  0
LINE
  8
0
 10
-64.5967
 20
-42.5661
 11
-64.597
 21
-42.5663
  0
LINE
  8
0
 10
-64.597
 20
-42.5663
 11
-69.0254
 21
-45.6671
  0
LINE
  8
0
 10
-69.0254
 20
-45.6671
 11
-69.0644
 21
-45.6944
  0
LINE
  8
0
 10
-69.0644
 20
-45.6944
 11
-69.0948
 21
-45.7157
  0
LINE
  8
0
 10
-69.0948
 20
-45.7157
 11
-69.0948
 21
-45.7157
  0
LINE
  8
0
 10
-69.0948
 20
-45.7157
 11
-69.5835
 21
-46.2256
  0
LINE
  8
0
 10
-69.5835
 20
-46.2256
 11
-69.5835
 21
-46.2257
  0
LINE
  8
0
 10
-69.5835
 20
-46.2257
 11
-70.2101
 21
-46.8795
  0
LINE
  8
0
 10
-70.2101
 20
-46.8795
 11
-70.2101
 21
-46.8795
  0
LINE
  8
0
 10
-70.2101
 20
-46.8795
 11
-70.69
 21
-54.6025
  0
LINE
  8
0
 10
-70.69
 20
-54.6025
 11
-70.9199
 21
-58.3033
  0
LINE
  8
0
 10
-66.2002
 20
-54.7371
 11
-66.0957
 21
-53.055
  0
LINE
  8
0
 10
-66.0957
 20
-53.055
 11
-65.9096
 21
-50.0601
  0
LINE
  8
0
 10
-65.9096
 20
-50.0601
 11
-62.8871
 21
-47.9437
  0
LINE
  8
0
 10
-62.8871
 20
-47.9437
 11
-57.9237
 21
-44.4683
  0
LINE
  8
0
 10
-57.9237
 20
-44.4683
 11
-57.6329
 21
-44.9719
  0
LINE
  8
0
 10
-57.6329
 20
-44.9719
 11
-57.0943
 21
-45.57
  0
LINE
  8
0
 10
-57.0943
 20
-45.57
 11
-56.4432
 21
-46.0431
  0
LINE
  8
0
 10
-56.4432
 20
-46.0431
 11
-55.7079
 21
-46.3705
  0
LINE
  8
0
 10
-55.7079
 20
-46.3705
 11
-54.9206
 21
-46.5378
  0
LINE
  8
0
 10
-54.9206
 20
-46.5378
 11
-54.1157
 21
-46.5378
  0
LINE
  8
0
 10
-54.1157
 20
-46.5378
 11
-53.3285
 21
-46.3705
  0
LINE
  8
0
 10
-53.3285
 20
-46.3705
 11
-52.5932
 21
-46.0431
  0
LINE
  8
0
 10
-52.5932
 20
-46.0431
 11
-51.942
 21
-45.57
  0
LINE
  8
0
 10
-51.942
 20
-45.57
 11
-51.4035
 21
-44.9719
  0
LINE
  8
0
 10
-51.4035
 20
-44.9719
 11
-51.001
 21
-44.2748
  0
LINE
  8
0
 10
-51.001
 20
-44.2748
 11
-50.7523
 21
-43.5094
  0
LINE
  8
0
 10
-50.7523
 20
-43.5094
 11
-50.6682
 21
-42.7089
  0
LINE
  8
0
 10
-50.6682
 20
-42.7089
 11
-50.7523
 21
-41.9084
  0
LINE
  8
0
 10
-50.7523
 20
-41.9084
 11
-51.001
 21
-41.143
  0
LINE
  8
0
 10
-51.001
 20
-41.143
 11
-51.4035
 21
-40.4459
  0
LINE
  8
0
 10
-51.4035
 20
-40.4459
 11
-51.942
 21
-39.8478
  0
LINE
  8
0
 10
-51.942
 20
-39.8478
 11
-52.5932
 21
-39.3747
  0
LINE
  8
0
 10
-52.5932
 20
-39.3747
 11
-53.3285
 21
-39.0473
  0
LINE
  8
0
 10
-53.3285
 20
-39.0473
 11
-54.1157
 21
-38.88
  0
LINE
  8
0
 10
-54.1157
 20
-38.88
 11
-54.1203
 21
-38.88
  0
LINE
  8
0
 10
-54.1203
 20
-38.88
 11
-52.1338
 21
-30.4647
  0
LINE
  8
0
 10
-52.1338
 20
-30.4647
 11
-52.1338
 21
-30.3647
  0
LINE
  8
0
 10
-52.1338
 20
-30.3647
 11
-53.5594
 21
-17.7756
  0
LINE
  8
0
 10
-53.5594
 20
-17.7756
 11
-54.0152
 21
-13.7508
  0
LINE
  8
0
 10
-54.0152
 20
-13.7508
 11
-54.0941
 21
-12.3325
  0
LINE
  8
0
 10
-54.0941
 20
-12.3325
 11
-54.3045
 21
-8.54999
  0
LINE
  8
0
 10
-54.3045
 20
-8.54999
 11
-54.3045
 21
8.54999
  0
LINE
  8
0
 10
-54.3045
 20
8.54999
 11
-54.0941
 21
12.3325
  0
LINE
  8
0
 10
-54.0941
 20
12.3325
 11
-54.0152
 21
13.7508
  0
LINE
  8
0
 10
-54.0152
 20
13.7508
 11
-53.5594
 21
17.7756
  0
LINE
  8
0
 10
-53.5594
 20
17.7756
 11
-52.1338
 21
30.3647
  0
LINE
  8
0
 10
-52.1338
 20
30.3647
 11
-51.9369
 21
31.4897
  0
LINE
  8
0
 10
-51.9369
 20
31.4897
 11
-51.2854
 21
35.2111
  0
LINE
  8
0
 10
-51.2854
 20
35.2111
 11
-48.4946
 21
46.6491
  0
LINE
  8
0
 10
-48.4946
 20
46.6491
 11
-47.6509
 21
50.1067
  0
LINE
  8
0
 10
-47.6509
 20
50.1067
 11
-46.8814
 21
50.8763
  0
LINE
  8
0
 10
-46.8814
 20
50.8763
 11
-46.6329
 21
50.4459
  0
LINE
  8
0
 10
-46.6329
 20
50.4459
 11
-46.0943
 21
49.8478
  0
LINE
  8
0
 10
-46.0943
 20
49.8478
 11
-45.4432
 21
49.3747
  0
LINE
  8
0
 10
-45.4432
 20
49.3747
 11
-44.7079
 21
49.0473
  0
LINE
  8
0
 10
-44.7079
 20
49.0473
 11
-43.9206
 21
48.88
  0
LINE
  8
0
 10
-43.9206
 20
48.88
 11
-43.1157
 21
48.88
  0
LINE
  8
0
 10
-43.1157
 20
48.88
 11
-42.3285
 21
49.0473
  0
LINE
  8
0
 10
-42.3285
 20
49.0473
 11
-41.5932
 21
49.3747
  0
LINE
  8
0
 10
-41.5932
 20
49.3747
 11
-40.942
 21
49.8478
  0
LINE
  8
0
 10
-40.942
 20
49.8478
 11
-40.4035
 21
50.4459
  0
LINE
  8
0
 10
-40.4035
 20
50.4459
 11
-40.001
 21
51.143
  0
LINE
  8
0
 10
-40.001
 20
51.143
 11
-39.7523
 21
51.9084
  0
LINE
  8
0
 10
-39.7523
 20
51.9084
 11
-39.6682
 21
52.7089
  0
LINE
  8
0
 10
-39.6682
 20
52.7089
 11
-39.7523
 21
53.5094
  0
LINE
  8
0
 10
-39.7523
 20
53.5094
 11
-40.001
 21
54.2748
  0
LINE
  8
0
 10
-40.001
 20
54.2748
 11
-40.4035
 21
54.9719
  0
LINE
  8
0
 10
-40.4035
 20
54.9719
 11
-40.942
 21
55.57
  0
LINE
  8
0
 10
-40.942
 20
55.57
 11
-41.5809
 21
56.0342
  0
LINE
  8
0
 10
-41.5809
 20
56.0342
 11
-29.0259
 21
56.0342
  0
LINE
  8
0
 10
-29.0259
 20
56.0342
 11
-26.1378
 21
56.0342
  0
LINE
  8
0
 10
-26.1378
 20
56.0342
 11
-24.0919
 21
56.0342
  0
LINE
  8
0
 10
-24.0919
 20
56.0342
 11
-23.5294
 21
56.0342
  0
LINE
  8
0
 10
-23.5294
 20
56.0342
 11
-11.0037
 21
56.0342
  0
LINE
  8
0
 10
-11.0037
 20
56.0342
 11
-7.44246
 21
56.0342
  0
LINE
  8
0
 10
-7.44246
 20
56.0342
 11
-6.99906
 21
57.4869
  0
LINE
  8
0
 10
-6.99906
 20
57.4869
 11
-5.91628
 21
61.0342
  0
LINE
  8
0
 10
-5.91628
 20
61.0342
 11
5.7778
 21
61.0342
  0
LINE
  8
0
 10
5.7778
 20
61.0342
 11
10.5045
 21
61.0342
  0
LINE
  8
0
 10
10.5045
 20
61.0342
 11
13.1185
 21
57.6974
  0
LINE
  8
0
 10
13.1185
 20
57.6974
 11
14.4214
 21
56.0342
  0
LINE
  8
0
 10
14.4214
 20
56.0342
 11
26.3425
 21
56.0342
  0
LINE
  8
0
 10
26.3425
 20
56.0342
 11
31.2617
 21
56.0342
  0
LINE
  8
0
 10
31.2617
 20
56.0342
 11
34.1361
 21
49.279
  0
LINE
  8
0
 10
34.1361
 20
49.279
 11
35.5168
 21
46.0342
  0
LINE
  8
0
 10
35.5168
 20
46.0342
 11
47.871
 21
46.0342
  0
LINE
  8
0
 10
47.871
 20
46.0342
 11
52.6224
 21
46.0342
  0
LINE
  8
0
 10
52.6224
 20
46.0342
 11
58.5198
 21
46.0342
  0
LINE
  8
0
 10
58.5198
 20
46.0342
 11
60.9689
 21
46.0342
  0
LINE
  8
0
 10
60.9689
 20
46.0342
 11
80.4736
 21
46.0342
  0
LINE
  8
0
 10
80.4736
 20
46.0342
 11
80.3031
 21
45.5094
  0
LINE
  8
0
 10
80.3031
 20
45.5094
 11
80.2189
 21
44.7089
  0
LINE
  8
0
 10
80.2189
 20
44.7089
 11
80.3031
 21
43.9084
  0
LINE
  8
0
 10
80.3031
 20
43.9084
 11
80.5518
 21
43.143
  0
LINE
  8
0
 10
80.5518
 20
43.143
 11
80.9542
 21
42.4459
  0
LINE
  8
0
 10
80.9542
 20
42.4459
 11
81.4928
 21
41.8478
  0
LINE
  8
0
 10
81.4928
 20
41.8478
 11
82.1439
 21
41.3747
  0
LINE
  8
0
 10
82.1439
 20
41.3747
 11
82.8792
 21
41.0473
  0
LINE
  8
0
 10
82.8792
 20
41.0473
 11
83.6665
 21
40.88
  0
LINE
  8
0
 10
83.6665
 20
40.88
 11
84.4714
 21
40.88
  0
LINE
  8
0
 10
84.4714
 20
40.88
 11
85.2587
 21
41.0473
  0
LINE
  8
0
 10
85.2587
 20
41.0473
 11
85.9939
 21
41.3747
  0
LINE
  8
0
 10
85.9939
 20
41.3747
 11
86.6451
 21
41.8478
  0
LINE
  8
0
 10
86.6451
 20
41.8478
 11
87.1837
 21
42.4459
  0
LINE
  8
0
 10
87.1837
 20
42.4459
 11
87.4043
 21
42.8281
  0
LINE
  8
0
 10
87.4043
 20
42.8281
 11
87.7023
 21
42.5701
  0
LINE
  8
0
 10
87.7023
 20
42.5701
 11
87.7023
 21
32.3711
  0
LINE
  8
0
 10
87.7023
 20
32.3711
 11
87.7023
 21
27.7974
  0
LINE
  8
0
 10
87.7023
 20
27.7974
 11
87.7023
 21
24.2272
  0
LINE
  8
0
 10
87.7023
 20
24.2272
 11
87.7023
 21
21.6415
  0
LINE
  8
0
 10
87.7023
 20
21.6415
 11
87.7023
 21
12.8901
  0
LINE
  8
0
 10
87.7023
 20
12.8901
 11
87.7023
 21
12.8541
  0
LINE
  8
0
 10
87.7023
 20
12.8541
 11
87.7023
 21
5.15194
  0
LINE
  8
0
 10
87.7023
 20
5.15194
 11
87.7023
 21
2.45228
  0
LINE
  8
0
 10
87.7023
 20
2.45228
 11
87.7023
 21
-1.5
  0
LINE
  8
0
 10
87.7023
 20
-1.5
 11
87.7023
 21
-18.5
  0
LINE
  8
0
 10
87.7023
 20
-18.5
 11
87.7023
 21
-22.4523
  0
LINE
  8
0
 10
87.7023
 20
-22.4523
 11
87.7023
 21
-25.1519
  0
LINE
  8
0
 10
87.7023
 20
-25.1519
 11
87.7023
 21
-32.8541
  0
LINE
  8
0
 10
87.7023
 20
-32.8541
 11
87.7023
 21
-32.8901
  0
LINE
  8
0
 10
87.7023
 20
-32.8901
 11
87.7023
 21
-41.6122
  0
LINE
  8
0
 10
87.7023
 20
-41.6122
 11
87.2456
 21
-42.0533
  0
LINE
  8
0
 10
87.2456
 20
-42.0533
 11
87.1837
 21
-41.9459
  0
LINE
  8
0
 10
87.1837
 20
-41.9459
 11
86.6451
 21
-41.3478
  0
LINE
  8
0
 10
86.6451
 20
-41.3478
 11
85.9939
 21
-40.8747
  0
LINE
  8
0
 10
85.9939
 20
-40.8747
 11
85.2587
 21
-40.5473
  0
LINE
  8
0
 10
85.2587
 20
-40.5473
 11
84.4714
 21
-40.38
  0
LINE
  8
0
 10
84.4714
 20
-40.38
 11
83.6665
 21
-40.38
  0
LINE
  8
0
 10
83.6665
 20
-40.38
 11
82.8792
 21
-40.5473
  0
LINE
  8
0
 10
82.8792
 20
-40.5473
 11
82.1439
 21
-40.8747
  0
LINE
  8
0
 10
82.1439
 20
-40.8747
 11
81.4928
 21
-41.3478
  0
LINE
  8
0
 10
81.4928
 20
-41.3478
 11
80.9542
 21
-41.9459
  0
LINE
  8
0
 10
80.9542
 20
-41.9459
 11
80.5518
 21
-42.643
  0
LINE
  8
0
 10
80.5518
 20
-42.643
 11
80.3031
 21
-43.4084
  0
LINE
  8
0
 10
80.3031
 20
-43.4084
 11
80.2189
 21
-44.2089
  0
LINE
  8
0
 10
80.2189
 20
-44.2089
 11
80.3031
 21
-45.0094
  0
LINE
  8
0
 10
80.3031
 20
-45.0094
 11
80.4547
 21
-45.4759
  0
LINE
  8
0
 10
80.4547
 20
-45.4759
 11
60.9689
 21
-45.4759
  0
LINE
  8
0
 10
60.9689
 20
-45.4759
 11
56.7583
 21
-45.4759
  0
LINE
  8
0
 10
56.7583
 20
-45.4759
 11
51.557
 21
-45.4759
  0
LINE
  8
0
 10
51.557
 20
-45.4759
 11
44.45
 21
-45.4759
  0
LINE
  8
0
 10
44.45
 20
-45.4759
 11
34.4668
 21
-45.4759
  0
LINE
  8
0
 10
34.4668
 20
-45.4759
 11
34.3196
 21
-45.9283
  0
LINE
  8
0
 10
34.3196
 20
-45.9283
 11
34.2142
 21
-46.2524
  0
LINE
  8
0
 10
34.2142
 20
-46.2524
 11
34.2656
 21
-48.4512
  0
LINE
  8
0
 10
34.2656
 20
-48.4512
 11
34.328
 21
-51.1251
  0
LINE
  8
0
 10
34.328
 20
-51.1251
 11
34.328
 21
-51.1251
  0
LINE
  8
0
 10
34.328
 20
-51.1251
 11
34.3293
 21
-51.1786
  0
LINE
  8
0
 10
34.3293
 20
-51.1786
 11
34.7082
 21
-51.1786
  0
LINE
  8
0
 10
34.7082
 20
-51.1786
 11
33.2313
 21
-56.0342
  0
LINE
  8
0
 10
33.2313
 20
-56.0342
 11
27.7287
 21
-56.0342
  0
LINE
  8
0
 10
27.7287
 20
-56.0342
 11
14.5199
 21
-56.0342
  0
LINE
  8
0
 10
14.5199
 20
-56.0342
 11
8.61191
 21
-54.7705
  0
LINE
  8
0
 10
8.61191
 20
-54.7705
 11
-6.55625
 21
-51.5259
  0
LINE
  8
0
 10
-6.55625
 20
-51.5259
 11
-6.62471
 21
-51.538
  0
LINE
  8
0
 10
-6.62471
 20
-51.538
 11
-6.65137
 21
-51.5427
  0
LINE
  8
0
 10
-6.65137
 20
-51.5427
 11
-6.65137
 21
-51.5427
  0
LINE
  8
0
 10
-6.65137
 20
-51.5427
 11
-7.0945
 21
-52.151
  0
LINE
  8
0
 10
-7.0945
 20
-52.151
 11
-7.26729
 21
-52.3882
  0
LINE
  8
0
 10
-7.26729
 20
-52.3882
 11
-11.3731
 21
-67.8631
  0
LINE
  8
0
 10
-11.3731
 20
-67.8631
 11
-12.6432
 21
-72.6504
  0
LINE
  8
0
 10
-12.6432
 20
-72.6504
 11
-12.6792
 21
-72.6672
  0
LINE
  8
0
 10
-12.6792
 20
-72.6672
 11
-12.8782
 21
-72.0549
  0
LINE
  8
0
 10
-12.8782
 20
-72.0549
 11
-13.2806
 21
-71.3579
  0
LINE
  8
0
 10
-13.2806
 20
-71.3579
 11
-13.8192
 21
-70.7597
  0
LINE
  8
0
 10
-13.8192
 20
-70.7597
 11
-14.4703
 21
-70.2866
  0
LINE
  8
0
 10
-14.4703
 20
-70.2866
 11
-15.2056
 21
-69.9593
  0
LINE
  8
0
 10
-15.2056
 20
-69.9593
 11
-15.9929
 21
-69.7919
  0
LINE
  8
0
 10
-15.9929
 20
-69.7919
 11
-16.7978
 21
-69.7919
  0
LINE
  8
0
 10
-16.7978
 20
-69.7919
 11
-17.585
 21
-69.9593
  0
LINE
  8
0
 10
-17.585
 20
-69.9593
 11
-18.3203
 21
-70.2866
  0
LINE
  8
0
 10
-18.3203
 20
-70.2866
 11
-18.9715
 21
-70.7597
  0
LINE
  8
0
 10
-18.9715
 20
-70.7597
 11
-19.51
 21
-71.3579
  0
LINE
  8
0
 10
-19.51
 20
-71.3579
 11
-19.9125
 21
-72.0549
  0
LINE
  8
0
 10
-19.9125
 20
-72.0549
 11
-20.1612
 21
-72.8204
  0
LINE
  8
0
 10
-20.1612
 20
-72.8204
 11
-20.2453
 21
-73.6208
  0
LINE
  8
0
 10
-20.2453
 20
-73.6208
 11
-20.1612
 21
-74.4213
  0
LINE
  8
0
 10
-20.1612
 20
-74.4213
 11
-19.9125
 21
-75.1868
  0
LINE
  8
0
 10
-19.9125
 20
-75.1868
 11
-19.5243
 21
-75.8591
  0
LINE
  8
0
 10
-19.5243
 20
-75.8591
 11
-20.9021
 21
-76.5016
  0
LINE
  8
0
 10
-20.9021
 20
-76.5016
 11
-26.1736
 21
-78.9597
  0
LINE
  8
0
 10
-26.1736
 20
-78.9597
 11
-26.1736
 21
-78.9597
  0
LINE
  8
0
 10
-26.1736
 20
-78.9597
 11
-26.3518
 21
-78.905
  0
LINE
  8
0
 10
-26.3518
 20
-78.905
 11
-26.5223
 21
-78.8526
  0
LINE
  8
0
 10
-26.5223
 20
-78.8526
 11
-32.372
 21
-82.9486
  0
LINE
  8
0
 10
-32.372
 20
-82.9486
 11
-38.1351
 21
-86.984
  0
LINE
  8
0
 10
-38.1351
 20
-86.984
 11
-38.4664
 21
-86.9059
  0
LINE
  8
0
 10
-38.4664
 20
-86.9059
 11
-40.0259
 21
-86.5386
  0
LINE
  8
0
 10
-40.0259
 20
-86.5386
 11
-43.3857
 21
-85.943
  0
LINE
  8
0
 10
-43.3857
 20
-85.943
 11
-51.8973
 21
-74.9315
  0
LINE
  8
0
 10
-51.8973
 20
-74.9315
 11
-53.6123
 21
-72.7649
  0
LINE
  8
0
 10
-53.6123
 20
-72.7649
 11
-53.8361
 21
-72.4821
  0
LINE
  8
0
 10
-53.8361
 20
-72.4821
 11
-53.8842
 21
-72.368
  0
LINE
  8
0
 10
-53.8842
 20
-72.368
 11
-55.6699
 21
-68.1246
  0
LINE
  8
0
 10
-55.6699
 20
-68.1246
 11
-62.7116
 21
-59.1723
  0
LINE
  8
0
 10
-62.7116
 20
-59.1723
 11
-66.2002
 21
-54.7371
  0
LINE
  8
0
 10
-56.2182
 20
-42.7089
 11
-56.181
 21
-42.3555
  0
LINE
  8
0
 10
-56.181
 20
-42.3555
 11
-56.0712
 21
-42.0175
  0
LINE
  8
0
 10
-56.0712
 20
-42.0175
 11
-55.8935
 21
-41.7097
  0
LINE
  8
0
 10
-55.8935
 20
-41.7097
 11
-55.6557
 21
-41.4456
  0
LINE
  8
0
 10
-55.6557
 20
-41.4456
 11
-55.3682
 21
-41.2367
  0
LINE
  8
0
 10
-55.3682
 20
-41.2367
 11
-55.0435
 21
-41.0921
  0
LINE
  8
0
 10
-55.0435
 20
-41.0921
 11
-54.6959
 21
-41.0182
  0
LINE
  8
0
 10
-54.6959
 20
-41.0182
 11
-54.3405
 21
-41.0182
  0
LINE
  8
0
 10
-54.3405
 20
-41.0182
 11
-53.9929
 21
-41.0921
  0
LINE
  8
0
 10
-53.9929
 20
-41.0921
 11
-53.6682
 21
-41.2367
  0
LINE
  8
0
 10
-53.6682
 20
-41.2367
 11
-53.3807
 21
-41.4456
  0
LINE
  8
0
 10
-53.3807
 20
-41.4456
 11
-53.1429
 21
-41.7097
  0
LINE
  8
0
 10
-53.1429
 20
-41.7097
 11
-52.9652
 21
-42.0175
  0
LINE
  8
0
 10
-52.9652
 20
-42.0175
 11
-52.8553
 21
-42.3555
  0
LINE
  8
0
 10
-52.8553
 20
-42.3555
 11
-52.8182
 21
-42.7089
  0
LINE
  8
0
 10
-52.8182
 20
-42.7089
 11
-52.8553
 21
-43.0624
  0
LINE
  8
0
 10
-52.8553
 20
-43.0624
 11
-52.9652
 21
-43.4004
  0
LINE
  8
0
 10
-52.9652
 20
-43.4004
 11
-53.1429
 21
-43.7081
  0
LINE
  8
0
 10
-53.1429
 20
-43.7081
 11
-53.3807
 21
-43.9722
  0
LINE
  8
0
 10
-53.3807
 20
-43.9722
 11
-53.6682
 21
-44.1811
  0
LINE
  8
0
 10
-53.6682
 20
-44.1811
 11
-53.9929
 21
-44.3257
  0
LINE
  8
0
 10
-53.9929
 20
-44.3257
 11
-54.3405
 21
-44.3996
  0
LINE
  8
0
 10
-54.3405
 20
-44.3996
 11
-54.6959
 21
-44.3996
  0
LINE
  8
0
 10
-54.6959
 20
-44.3996
 11
-55.0435
 21
-44.3257
  0
LINE
  8
0
 10
-55.0435
 20
-44.3257
 11
-55.3682
 21
-44.1811
  0
LINE
  8
0
 10
-55.3682
 20
-44.1811
 11
-55.6557
 21
-43.9722
  0
LINE
  8
0
 10
-55.6557
 20
-43.9722
 11
-55.8935
 21
-43.7081
  0
LINE
  8
0
 10
-55.8935
 20
-43.7081
 11
-56.0712
 21
-43.4004
  0
LINE
  8
0
 10
-56.0712
 20
-43.4004
 11
-56.181
 21
-43.0624
  0
LINE
  8
0
 10
-56.181
 20
-43.0624
 11
-56.2182
 21
-42.7089
  0
LINE
  8
0
 10
-45.2182
 20
52.7089
 11
-45.181
 21
53.0624
  0
LINE
  8
0
 10
-45.181
 20
53.0624
 11
-45.0712
 21
53.4004
  0
LINE
  8
0
 10
-45.0712
 20
53.4004
 11
-44.8935
 21
53.7081
  0
LINE
  8
0
 10
-44.8935
 20
53.7081
 11
-44.6557
 21
53.9722
  0
LINE
  8
0
 10
-44.6557
 20
53.9722
 11
-44.3682
 21
54.1811
  0
LINE
  8
0
 10
-44.3682
 20
54.1811
 11
-44.0435
 21
54.3257
  0
LINE
  8
0
 10
-44.0435
 20
54.3257
 11
-43.6959
 21
54.3996
  0
LINE
  8
0
 10
-43.6959
 20
54.3996
 11
-43.3405
 21
54.3996
  0
LINE
  8
0
 10
-43.3405
 20
54.3996
 11
-42.9929
 21
54.3257
  0
LINE
  8
0
 10
-42.9929
 20
54.3257
 11
-42.6682
 21
54.1811
  0
LINE
  8
0
 10
-42.6682
 20
54.1811
 11
-42.3807
 21
53.9722
  0
LINE
  8
0
 10
-42.3807
 20
53.9722
 11
-42.1429
 21
53.7081
  0
LINE
  8
0
 10
-42.1429
 20
53.7081
 11
-41.9652
 21
53.4004
  0
LINE
  8
0
 10
-41.9652
 20
53.4004
 11
-41.8553
 21
53.0624
  0
LINE
  8
0
 10
-41.8553
 20
53.0624
 11
-41.8182
 21
52.7089
  0
LINE
  8
0
 10
-41.8182
 20
52.7089
 11
-41.8553
 21
52.3555
  0
LINE
  8
0
 10
-41.8553
 20
52.3555
 11
-41.9652
 21
52.0175
  0
LINE
  8
0
 10
-41.9652
 20
52.0175
 11
-42.1429
 21
51.7097
  0
LINE
  8
0
 10
-42.1429
 20
51.7097
 11
-42.3807
 21
51.4456
  0
LINE
  8
0
 10
-42.3807
 20
51.4456
 11
-42.6682
 21
51.2367
  0
LINE
  8
0
 10
-42.6682
 20
51.2367
 11
-42.9929
 21
51.0921
  0
LINE
  8
0
 10
-42.9929
 20
51.0921
 11
-43.3405
 21
51.0182
  0
LINE
  8
0
 10
-43.3405
 20
51.0182
 11
-43.6959
 21
51.0182
  0
LINE
  8
0
 10
-43.6959
 20
51.0182
 11
-44.0435
 21
51.0921
  0
LINE
  8
0
 10
-44.0435
 20
51.0921
 11
-44.3682
 21
51.2367
  0
LINE
  8
0
 10
-44.3682
 20
51.2367
 11
-44.6557
 21
51.4456
  0
LINE
  8
0
 10
-44.6557
 20
51.4456
 11
-44.8935
 21
51.7097
  0
LINE
  8
0
 10
-44.8935
 20
51.7097
 11
-45.0712
 21
52.0175
  0
LINE
  8
0
 10
-45.0712
 20
52.0175
 11
-45.181
 21
52.3555
  0
LINE
  8
0
 10
-45.181
 20
52.3555
 11
-45.2182
 21
52.7089
  0
LINE
  8
0
 10
-18.0953
 20
-73.6208
 11
-18.0582
 21
-73.2674
  0
LINE
  8
0
 10
-18.0582
 20
-73.2674
 11
-17.9484
 21
-72.9294
  0
LINE
  8
0
 10
-17.9484
 20
-72.9294
 11
-17.7707
 21
-72.6216
  0
LINE
  8
0
 10
-17.7707
 20
-72.6216
 11
-17.5328
 21
-72.3575
  0
LINE
  8
0
 10
-17.5328
 20
-72.3575
 11
-17.2453
 21
-72.1486
  0
LINE
  8
0
 10
-17.2453
 20
-72.1486
 11
-16.9207
 21
-72.004
  0
LINE
  8
0
 10
-16.9207
 20
-72.004
 11
-16.573
 21
-71.9301
  0
LINE
  8
0
 10
-16.573
 20
-71.9301
 11
-16.2176
 21
-71.9301
  0
LINE
  8
0
 10
-16.2176
 20
-71.9301
 11
-15.87
 21
-72.004
  0
LINE
  8
0
 10
-15.87
 20
-72.004
 11
-15.5453
 21
-72.1486
  0
LINE
  8
0
 10
-15.5453
 20
-72.1486
 11
-15.2578
 21
-72.3575
  0
LINE
  8
0
 10
-15.2578
 20
-72.3575
 11
-15.02
 21
-72.6216
  0
LINE
  8
0
 10
-15.02
 20
-72.6216
 11
-14.8423
 21
-72.9294
  0
LINE
  8
0
 10
-14.8423
 20
-72.9294
 11
-14.7325
 21
-73.2674
  0
LINE
  8
0
 10
-14.7325
 20
-73.2674
 11
-14.6953
 21
-73.6208
  0
LINE
  8
0
 10
-14.6953
 20
-73.6208
 11
-14.7325
 21
-73.9743
  0
LINE
  8
0
 10
-14.7325
 20
-73.9743
 11
-14.8423
 21
-74.3123
  0
LINE
  8
0
 10
-14.8423
 20
-74.3123
 11
-15.02
 21
-74.6201
  0
LINE
  8
0
 10
-15.02
 20
-74.6201
 11
-15.2578
 21
-74.8842
  0
LINE
  8
0
 10
-15.2578
 20
-74.8842
 11
-15.5453
 21
-75.0931
  0
LINE
  8
0
 10
-15.5453
 20
-75.0931
 11
-15.87
 21
-75.2376
  0
LINE
  8
0
 10
-15.87
 20
-75.2376
 11
-16.2176
 21
-75.3115
  0
LINE
  8
0
 10
-16.2176
 20
-75.3115
 11
-16.573
 21
-75.3115
  0
LINE
  8
0
 10
-16.573
 20
-75.3115
 11
-16.9207
 21
-75.2376
  0
LINE
  8
0
 10
-16.9207
 20
-75.2376
 11
-17.2453
 21
-75.0931
  0
LINE
  8
0
 10
-17.2453
 20
-75.0931
 11
-17.5328
 21
-74.8842
  0
LINE
  8
0
 10
-17.5328
 20
-74.8842
 11
-17.7707
 21
-74.6201
  0
LINE
  8
0
 10
-17.7707
 20
-74.6201
 11
-17.9484
 21
-74.3123
  0
LINE
  8
0
 10
-17.9484
 20
-74.3123
 11
-18.0582
 21
-73.9743
  0
LINE
  8
0
 10
-18.0582
 20
-73.9743
 11
-18.0953
 21
-73.6208
  0
LINE
  8
0
 10
82.3689
 20
-44.2089
 11
82.4061
 21
-43.8555
  0
LINE
  8
0
 10
82.4061
 20
-43.8555
 11
82.5159
 21
-43.5175
  0
LINE
  8
0
 10
82.5159
 20
-43.5175
 11
82.6936
 21
-43.2097
  0
LINE
  8
0
 10
82.6936
 20
-43.2097
 11
82.9314
 21
-42.9456
  0
LINE
  8
0
 10
82.9314
 20
-42.9456
 11
83.2189
 21
-42.7367
  0
LINE
  8
0
 10
83.2189
 20
-42.7367
 11
83.5436
 21
-42.5921
  0
LINE
  8
0
 10
83.5436
 20
-42.5921
 11
83.8912
 21
-42.5182
  0
LINE
  8
0
 10
83.8912
 20
-42.5182
 11
84.2466
 21
-42.5182
  0
LINE
  8
0
 10
84.2466
 20
-42.5182
 11
84.5943
 21
-42.5921
  0
LINE
  8
0
 10
84.5943
 20
-42.5921
 11
84.9189
 21
-42.7367
  0
LINE
  8
0
 10
84.9189
 20
-42.7367
 11
85.2065
 21
-42.9456
  0
LINE
  8
0
 10
85.2065
 20
-42.9456
 11
85.4443
 21
-43.2097
  0
LINE
  8
0
 10
85.4443
 20
-43.2097
 11
85.622
 21
-43.5175
  0
LINE
  8
0
 10
85.622
 20
-43.5175
 11
85.7318
 21
-43.8555
  0
LINE
  8
0
 10
85.7318
 20
-43.8555
 11
85.7689
 21
-44.2089
  0
LINE
  8
0
 10
85.7689
 20
-44.2089
 11
85.7318
 21
-44.5624
  0
LINE
  8
0
 10
85.7318
 20
-44.5624
 11
85.622
 21
-44.9004
  0
LINE
  8
0
 10
85.622
 20
-44.9004
 11
85.4443
 21
-45.2081
  0
LINE
  8
0
 10
85.4443
 20
-45.2081
 11
85.2065
 21
-45.4722
  0
LINE
  8
0
 10
85.2065
 20
-45.4722
 11
84.9189
 21
-45.6811
  0
LINE
  8
0
 10
84.9189
 20
-45.6811
 11
84.5943
 21
-45.8257
  0
LINE
  8
0
 10
84.5943
 20
-45.8257
 11
84.2466
 21
-45.8996
  0
LINE
  8
0
 10
84.2466
 20
-45.8996
 11
83.8912
 21
-45.8996
  0
LINE
  8
0
 10
83.8912
 20
-45.8996
 11
83.5436
 21
-45.8257
  0
LINE
  8
0
 10
83.5436
 20
-45.8257
 11
83.2189
 21
-45.6811
  0
LINE
  8
0
 10
83.2189
 20
-45.6811
 11
82.9314
 21
-45.4722
  0
LINE
  8
0
 10
82.9314
 20
-45.4722
 11
82.6936
 21
-45.2081
  0
LINE
  8
0
 10
82.6936
 20
-45.2081
 11
82.5159
 21
-44.9004
  0
LINE
  8
0
 10
82.5159
 20
-44.9004
 11
82.4061
 21
-44.5624
  0
LINE
  8
0
 10
82.4061
 20
-44.5624
 11
82.3689
 21
-44.2089
  0
LINE
  8
0
 10
82.3689
 20
44.7089
 11
82.4061
 21
45.0624
  0
LINE
  8
0
 10
82.4061
 20
45.0624
 11
82.5159
 21
45.4004
  0
LINE
  8
0
 10
82.5159
 20
45.4004
 11
82.6936
 21
45.7081
  0
LINE
  8
0
 10
82.6936
 20
45.7081
 11
82.9314
 21
45.9722
  0
LINE
  8
0
 10
82.9314
 20
45.9722
 11
83.2189
 21
46.1811
  0
LINE
  8
0
 10
83.2189
 20
46.1811
 11
83.5436
 21
46.3257
  0
LINE
  8
0
 10
83.5436
 20
46.3257
 11
83.8912
 21
46.3996
  0
LINE
  8
0
 10
83.8912
 20
46.3996
 11
84.2466
 21
46.3996
  0
LINE
  8
0
 10
84.2466
 20
46.3996
 11
84.5943
 21
46.3257
  0
LINE
  8
0
 10
84.5943
 20
46.3257
 11
84.9189
 21
46.1811
  0
LINE
  8
0
 10
84.9189
 20
46.1811
 11
85.2065
 21
45.9722
  0
LINE
  8
0
 10
85.2065
 20
45.9722
 11
85.4443
 21
45.7081
  0
LINE
  8
0
 10
85.4443
 20
45.7081
 11
85.622
 21
45.4004
  0
LINE
  8
0
 10
85.622
 20
45.4004
 11
85.7318
 21
45.0624
  0
LINE
  8
0
 10
85.7318
 20
45.0624
 11
85.7689
 21
44.7089
  0
LINE
  8
0
 10
85.7689
 20
44.7089
 11
85.7318
 21
44.3555
  0
LINE
  8
0
 10
85.7318
 20
44.3555
 11
85.622
 21
44.0175
  0
LINE
  8
0
 10
85.622
 20
44.0175
 11
85.4443
 21
43.7097
  0
LINE
  8
0
 10
85.4443
 20
43.7097
 11
85.2065
 21
43.4456
  0
LINE
  8
0
 10
85.2065
 20
43.4456
 11
84.9189
 21
43.2367
  0
LINE
  8
0
 10
84.9189
 20
43.2367
 11
84.5943
 21
43.0921
  0
LINE
  8
0
 10
84.5943
 20
43.0921
 11
84.2466
 21
43.0182
  0
LINE
  8
0
 10
84.2466
 20
43.0182
 11
83.8912
 21
43.0182
  0
LINE
  8
0
 10
83.8912
 20
43.0182
 11
83.5436
 21
43.0921
  0
LINE
  8
0
 10
83.5436
 20
43.0921
 11
83.2189
 21
43.2367
  0
LINE
  8
0
 10
83.2189
 20
43.2367
 11
82.9314
 21
43.4456
  0
LINE
  8
0
 10
82.9314
 20
43.4456
 11
82.6936
 21
43.7097
  0
LINE
  8
0
 10
82.6936
 20
43.7097
 11
82.5159
 21
44.0175
  0
LINE
  8
0
 10
82.5159
 20
44.0175
 11
82.4061
 21
44.3555
  0
LINE
  8
0
 10
82.4061
 20
44.3555
 11
82.3689
 21
44.7089
  0
ENDSEC
  0
SECTION
  2
OBJECTS
  0
DICTIONARY
  0
ENDSEC
  0
EOF
